<?xml version="1.0" standalone="no"?>
<!DOCTYPE svg PUBLIC "-//W3C//DTD SVG 1.1//EN" "http://www.w3.org/Graphics/SVG/1.1/DTD/svg11.dtd" >
<svg xmlns="http://www.w3.org/2000/svg">
<metadata>Generated by IcoMoon</metadata>
<defs>
<font id="icomoon" horiz-adv-x="1024">
<font-face units-per-em="1024" ascent="1024" descent="0" />
<missing-glyph horiz-adv-x="1024" />
<glyph unicode="&#x20;" horiz-adv-x="0" d="" />
<glyph unicode="&#xe900;" glyph-name="job-drk" d="M573.204 629.857l314.938-95.77-228.385 180.48 138.14 163.9-224.693-73.654-61.193 219.149-0.019-0.011-61.193-219.141-224.693 73.654 138.14-163.9-228.385-180.48 314.938 95.77c7.355-114.183-162.078-162.078-162.078-162.078 196.51-196.499 223.118-466.204 223.271-467.731v3.655h0.019v0.019c0.134 1.546 26.761 271.262 223.241 467.75 0 0-169.403 44.202-162.048 158.385zM511.989 371.37l-71.851 71.851 71.87 71.87 71.851-71.851-71.87-71.87z" />
<glyph unicode="&#xe901;" glyph-name="marker-msq" d="M972.303 367.468c-4.664 0.773-8.571 27.244-10.132 31.918-1.546 4.675-10.9 31.145-10.9 31.145-9.339-35.82-42.035-77.86-70.072-77.86s-49.050 32.707-51.389 37.376c-2.34 4.664 4.669 18.683 0 23.363s-14.008 17.91-14.008 25.692c0 7.788 9.339 9.344 11.679 21.023 2.33 11.674 21.018 16.343 21.018 32.701s17.132 34.268 17.132 45.947-23.363 14.792-24.919 23.357c-1.551 8.566 28.815 11.679 27.259 26.476-1.567 14.792-37.381 42.040-38.159 64.62-0.768 22.579 49.060 52.168 58.399 52.168 9.334 0 16.343 21.018 3.103 21.801-13.23 0.773-10.127 22.579 0.773 29.583 10.906 7.009 31.155 11.679 31.155 16.348s11.663 18.683 14.003 37.371c2.34 18.688-15.57 4.675-32.701-10.117-17.132-14.797-32.701-0.778-42.819-5.448-10.127-4.669 10.127-35.041 3.891-38.154-6.231-3.113-7.004-8.566-10.122-23.357-3.118-14.797-39.711-7.009-42.051-0.778-2.33 6.226-10.895 15.57-16.348 12.457-5.443-3.113-24.909-9.344-28.81-5.448-3.891 3.896-23.347 10.9-22.579-0.773 0.778-11.679-13.998-29.588-23.352-29.588s-24.919 26.47-28.81 34.258 3.108 19.466-0.778 31.918c-3.901 12.462-27.249-2.335-24.141-14.008 3.123-11.679-24.909-20.25-37.371-21.023s-14.008 14.797-27.249 14.013-36.588 11.679-36.588 46.715c0 35.036 45.143 57.615 55.286 57.615 10.122 0 29.568-13.235 40.468-13.235 10.906 0 24.151 13.235 33.48 13.235 9.349 0 17.91-8.561 25.708-8.561 7.788 0 9.344 9.339 23.357 9.339s28.037-10.122 31.923 4.669c3.896 14.802 33.48 55.281 49.050 71.629s21.806 94.213 0 69.299c-21.796-24.919-61.512-49.828-75.53-41.272-14.003 8.571-28.022 0.778-45.143-17.69-17.132-18.468-43.617-15.012-57.62-6.446-14.019 8.571-19.476 15.575-47.488-27.249-28.032-42.824-58.394-48.276-109.010-38.932-50.611 9.344-46.72-41.267-71.629-82.534-24.919-41.267-52.168-22.574-78.638-5.448-26.47 17.132 6.231 31.923 6.231 31.923 41.267 24.151-7.793 35.026-22.579 38.917-14.802 3.891-2.34 42.829-17.91 42.829s-35.041-51.395-56.064-76.308c-21.018-24.914-45.158-7.009-49.828-14.013s10.9-35.036 28.81-47.493c17.91-12.457-10.122-30.367 6.231-41.267 16.348-10.9-0.010-49.833-21.033-26.481-21.018 23.357-46.72-44.38-66.959-45.937-20.239-1.562-90.317 42.040-73.19 29.583 0.742-0.532 1.413-1.121 2.022-1.751 13.609-14.054-2.698-50.586-0.461-54.313 2.33-3.891 57.62-9.339 57.62-28.022 0-18.688-42.051-39.711-45.942-51.389-3.886-11.674 48.271-43.602 40.489-55.281-7.788-11.679 8.561-66.975 8.561-66.975-7.009-73.984-66.959-66.944-84.869-71.613s49.833-82.529 49.833-82.529 63.846-17.132 63.846-64.63c0-47.483-32.707-60.723-32.707-60.723 37.376-5.448 109.010-21.018 153.39-47.488 44.38-26.476 11.679-63.852 35.809-70.077 24.141-6.231 60.728 38.932 81.761 33.469 21.012-5.443 59.95-32.701 74.737-30.362 14.802 2.335 41.272 67.738 71.629 56.842 30.372-10.911 73.19-53.724 73.19-53.724 14.792-1.556 45.942-14.797 45.942-14.797 14.008 112.118 119.91 114.458 124.58 122.25 4.669 7.788-4.669 62.29 1.567 79.421s30.362 17.905 42.813 20.239c12.472 2.33 26.47 2.34 25.702 18.683-0.778 16.348 30.372 44.385 46.72 56.059 16.338 11.679 39.706 36.603 50.606 42.056 10.911 5.453 14.797 14.008 10.127 14.787zM487.798 122.179c-164.26 0-297.416 133.161-297.416 297.426s133.161 297.426 297.416 297.426c164.265 0 297.431-133.161 297.431-297.426s-133.166-297.426-297.431-297.426z" />
<glyph unicode="&#xe902;" glyph-name="job-whm" d="M555.1 714.443c0-50.496-40.929-91.434-91.423-91.434-50.476 0-91.403 40.929-91.403 91.434 0 50.465 40.918 91.414 91.403 91.414 50.496-0.011 91.423-40.949 91.423-91.414zM596.51 1013.777l-0.020-0.020c-8.128 6.362-18.348 10.2-29.483 10.2-26.499 0-47.972-21.485-47.972-47.972 0-16.853 8.722-31.654 21.847-40.214 2.493-1.608 5.166-2.973 7.947-4.090 40.98-22.398 221.918-136.462 95.012-345.761-148.010-157.404-286.342-57.59-318.185-30.588-0.020 0.020-0.020 0.040-0.040 0.071-4.943 4.231-9.697 8.693-14.27 13.345-7.357 4.511-15.977 7.164-25.252 7.164-26.719 0-48.385-21.666-48.385-48.385 0-11.113 3.787-21.313 10.070-29.472 3.787-3.728 7.676-7.345 11.636-10.892 1.749-1.145 3.567-2.182 5.457-3.106 0.020 0 73.496-63.791 177.481-75.777 7.97-1.919 21.313-8.883 21.313-33.935v-322.043c-0.252-1.99-0.432-3.991-0.432-6.071 0-25.493 20.651-46.164 46.144-46.164 25.504 0 46.164 20.671 46.164 46.164 0 2.080-0.201 4.081-0.452 6.071v333.077l0.452 0.192c0 0-0.271 1.065-0.452 2.874v6.763c0.803 8.422 5.025 20.68 20.801 29.715 5.356 2.049 10.751 4.29 16.169 6.712 0.020 0.020 0.040 0.040 0.059 0.040 6.481 1.888 10.641 4.010 13.035 6.24 42.114 21.355 85.414 55.117 128.203 105.904 174.005 341.318-136.846 469.962-136.846 469.962z" />
<glyph unicode="&#xe903;" glyph-name="job-sch" d="M983.040 597.556c-0.573 1.391-1.175 2.753-1.891 4.074l-0.012 0.012c-7.055 13.082-20.877 21.979-36.776 21.979-23.069 0-41.765-18.705-41.765-41.774 0-5.766 1.175-11.264 3.262-16.253 1.342-3.139 3.066-6.079 5.083-8.78 0 0 116.472-215.403-117.791-244.259-198.744-24.472-216.034 311.069 33.108 365.793 0 0-128.838 112.325-314.269 112.325-185.451 0-314.289-112.325-314.289-112.325 249.134-54.725 231.864-390.265 33.129-365.793-234.284 28.859-117.802 244.259-117.802 244.259 2.037 2.701 3.762 5.644 5.083 8.78 2.131 4.989 3.285 10.495 3.285 16.253 0 23.069-18.694 41.774-41.774 41.774-15.888 0-29.709-8.897-36.776-21.979v-0.012c-0.707-1.321-1.342-2.68-1.903-4.074-144.592-305.872 136.841-364.203 188.476-364.203 51.825 0 234.719 33.129 234.719 201.602 0 168.494-108.023 224.662-108.023 224.662 67.693 63.358 155.876 56.168 155.876 56.168s88.163 7.181 155.856-56.168c0 0-108.002-56.157-108.002-224.662 0-168.482 182.897-201.602 234.731-201.602 51.647 0 333.080 58.328 188.467 364.203z" />
<glyph unicode="&#xe904;" glyph-name="job-ast" d="M145.021 812.646v-336.011h102.574v231.877h258.208v-477.913h-254.648v161.133c-226.378-76.044-251.109-314.781-251.109-314.781 51.63 89.999 122.786 136.649 144.989 149.672v-100.159h463.352v686.181h-463.365zM321.889 947.049h452.72v-93.738h-452.72v93.738zM1023.967 812.646c0 0-143.651-4.484-249.359-78.456v200.7h-93.725v-613.889h93.725v291.81c0.745 11.307 15.732 76.623 249.359 199.835z" />
<glyph unicode="&#xe905;" glyph-name="job-war" d="M684.844 1001.663c119.387-290.271-172.844-341.81-172.844-341.81s-292.221 51.542-172.857 341.81c0 0-339.093-139.187-339.093-494.145 0-354.97 339.093-485.178 339.093-485.178s-127.504 268.563 172.857 314.67c300.351-46.107 172.844-314.67 172.844-314.67s339.106 130.212 339.106 485.178c0 354.957-339.106 494.145-339.106 494.145zM793.373 190.526c0 0-63.572 238.742-281.373 238.742-217.788 0-281.351-238.742-281.351-238.742s-127.53 138.342-127.53 321.464c0 183.146 127.53 294.347 127.53 294.347 32.552-214.306 281.351-254.998 281.351-254.998s248.808 40.695 281.373 254.998c0 0 127.504-111.198 127.504-294.347 0-183.123-127.504-321.464-127.504-321.464z" />
<glyph unicode="&#xe906;" glyph-name="job-pld" d="M863.127 1007.65l-48.529-34.814v-56.936h-246.482v68.487l-57.126 39.56-55.153-39.56v-68.487h-246.469v56.936l-50.289 34.814-48.516-34.814v-505.94c0 0 8.922-264.643 401.426-466.844 367.371 170.93 401.426 449.001 401.426 449.001v523.78l-50.289 34.814zM179.69 503.306v337.555h289.93v-710.911c-283.032 167.836-289.93 373.356-289.93 373.356zM837.85 488.189c0 0-25.179-211.143-283.483-356.536v709.198h283.483v-352.659z" />
<glyph unicode="&#xe907;" glyph-name="job-gnb" d="M1010.087 972.135c0 1.16-0.334 2.214-1.122 2.95-0.788 0.747-1.854 1.028-3.055 1.028-2.349 0-5.39-1.066-9.3-3.19l-244.793-133.418c-5.686-3.096-12.637-7.702-19.415-12.689-58.835 42.651-128.321 71.513-203.733 81.804-0.48 0.736-1.002 1.426-1.576 2.109l-87.314 105.115c-4.47 5.378-9.875 8.126-15.2 8.126-6.407 0-12.506-4.005-16.401-11.451l-60.798-115.658c-192.189-52.417-333.495-228.178-333.495-436.982 0-24.073 1.895-47.695 5.51-70.766l0.105-0.721h151.542l-0.255 1.055c-5.352 22.594-8.208 46.171-8.208 70.421 0 84.003 34.041 160.054 89.115 215.117 55.059 55.059 131.109 89.115 215.128 89.115 56.876 0 110.107-15.628 155.636-42.771l-402.407-397.494c-4.725-4.669-10.344-11.143-15.692-17.91-0.375-0.48-0.762-0.961-1.122-1.426-5.179-6.632-9.995-13.425-13.331-18.976l-69.257-115.098c0.454-0.548 0.893-1.096 1.362-1.64l-0.92-1.509c-0.454 0.533-0.908 1.066-1.362 1.603l-93.266-154.983c-2.349-3.922-3.524-7.018-3.535-9.447 0-1.295 0.36-2.455 1.201-3.269 0.841-0.788 2.015-1.148 3.337-1.133 2.376 0 5.431 1.040 9.263 3.081l144.561 77.586c5.712 3.055 12.704 7.593 19.509 12.517 74.677-54.301 166.607-86.312 266.010-86.312 85.099 0 164.712 23.461 232.73 64.281l117.058-52.725c3.618-1.629 7.112-2.428 10.344-2.428 5.044 0 9.462 1.948 12.558 5.498 3.070 3.562 4.845 8.632 4.845 14.851v173.145c47.628 71.716 75.397 157.761 75.397 250.318 0 9.503-0.334 18.923-0.908 28.265l-0.053 0.799h-149.14l0.079-0.92c0.841-9.263 1.306-18.657 1.306-28.13 0-84.030-34.041-160.095-89.115-215.143-55.048-55.059-131.109-89.115-215.128-89.115-56.38 0-109.187 15.332-154.45 42.062l405.53 390.476c4.616 4.444 10.663 10.276 16.747 16.12 0.428 0.402 0.841 0.814 1.269 1.227 6.26 6.005 12.464 11.958 17.201 16.533l73.341 70.473c4.752 4.579 10.475 10.903 15.947 17.55 0.36 0.439 0.747 0.882 1.122 1.362 5.337 6.564 10.355 13.29 13.864 18.777l148.779 232.411c2.642 4.016 3.922 7.154 3.948 9.541zM20.264 389.241v0.856h0.736c0.041-0.24 0.068-0.48 0.105-0.721l-0.841-0.135z" />
<glyph unicode="&#xe908;" glyph-name="job-wvr" d="M905.898 211.848l-11.66 100.064-17.196 1.991c9.49 53.401-2.691 118.573-33.779 185.493l-100.383-92.956 90.84 112.309c-17.935 34.712-40.858 69.575-68.412 103.304l-169.943-157.379 147.99 182.956c-7.642 8.456-15.564 16.812-23.78 25.054-20.91 20.895-42.594 39.878-64.702 56.946l-168.451-156.012 141.89 175.469c-33.040 22.861-66.665 41.292-99.64 55.058l-126.201-114.415 95.941 125.792c-45.515 15.155-89.017 20.845-127.145 16.174l-58.108-52.673 43.897 57.57-1.647 14.172-101.592 11.84-160.35 114.681 111.979-137.108 14.566-124.823 21.086-2.461c-19.453-100.358 38.935-243.676 156.97-361.701 74.626-74.601 159.306-125.322 236.867-147.67-68.441-44.647-194.577-105.37-280.76-19.188-0.499 0.499-1.019 1.019-1.532 1.543-74.142 76.069-96.77 145.005-114.964 200.418-15.054 45.77-27.988 85.318-64.738 111.021-20.002 13.992-42.609 18.675-65.341 13.522-58.144-13.178-100.319-85.203-104.961-93.38-4.553-8.101-2.96-17.961 3.304-24.21 1.277-1.277 2.73-2.397 4.363-3.315 9.719-5.486 22.043-2.067 27.529 7.653 10.103 17.86 43.933 65.951 78.695 73.848 11.8 2.691 22.348 0.37 33.23-7.219 25.717-17.986 35.691-48.435 49.508-90.52 18.459-56.257 43.757-133.244 124.429-216.022 62.636-64.204 150.106-74.996 253.206-31.318 48.654 20.601 89.476 48.514 112.628 66.001 23.83-2.716 46.473-2.372 67.304 1.327l2.002-17.171 123.969-14.452 141.176-115.308-118.089 165.096z" />
<glyph unicode="&#xe909;" glyph-name="job-ltw" d="M974.251 885.068c-8.031 0-15.599-1.95-22.292-5.342l-0.047 0.037c0 0-122.817 20.608-248.889 5.308 0 0-73.429 68.611-120.773 5.655 0 0 32.895 108.94-70.249 120.404-103.144-11.464-70.249-120.404-70.249-120.404-47.348 62.97-120.773-5.655-120.773-5.655-126.068 15.29-248.889-5.308-248.889-5.308l-0.047-0.037c-6.707 3.395-14.261 5.342-22.292 5.342-27.432 0-49.678-22.222-49.678-49.664 0-21.216 13.353-39.29 32.082-46.403 14.691-59.205 36.698-104.506 36.698-104.506s103.144-127.981 114.285-280.793c11.141-152.808-68.433-297.992-133.374-347.656-64.977-49.654 99.318-53.48 152.798-26.74 53.49 26.74 76.418 49.664 171.924 49.664s137.522-49.664 137.522-49.664 42.026 49.664 137.532 49.664 118.43-22.928 171.924-49.664c53.466-26.726 217.776-22.914 152.798 26.74-64.93 49.664-144.515 194.848-133.374 347.656s114.285 280.793 114.285 280.793 22.017 45.304 36.698 104.506c18.719 7.114 32.082 25.173 32.082 46.403-0.013 27.446-22.232 49.664-49.688 49.664zM672.46 804.842c0-19.102 30.566-72.578 30.566-72.578-15.29 0-64.954-84.042-64.954-84.042-26.726 7.652-76.418-22.914-76.418-22.914 19.125 72.578 110.806 179.535 110.806 179.535zM779.594 560.326c0.168-61.118-51.661-137.522-51.661-137.522l-51.638 64.954c26.716 38.19 103.299 72.568 103.299 72.568zM183.456 743.71c0 0 110.782-38.177 122.269-118.42-0.013 0-129.908 26.726-122.269 118.42zM244.406 346.4c0 0 99.496-15.276 103.312-103.144 0 0-107.279 3.802-103.312 103.144zM296.077 422.804c0 0-51.829 76.418-51.661 137.522 0 0 76.572-34.388 103.312-72.578l-51.651-64.94zM427 166.842c-35.323 0-52.535 38.204-52.535 38.204 11.464 30.576 87.878-38.204 52.535-38.204zM391.68 273.808c43.915 42.026 0 91.694 0 91.694 112.682-34.388 0-91.694 0-91.694zM462.346 403.706c0 0-49.678 78.041-70.666 67.68 0 0 70.666 39.29 70.666 31.628v-99.308zM385.932 648.208c0 0-49.678 84.042-64.954 84.042 0 0 30.566 53.49 30.566 72.578 0 0 91.704-106.946 110.806-179.548 0 0.013-49.688 30.576-76.418 22.928zM512 78.974c-16.876 0-30.566 13.676-30.566 30.566s13.686 30.566 30.566 30.566 30.566-13.676 30.566-30.566-13.686-30.566-30.566-30.566zM561.654 503.024c0 7.662 70.692-31.628 70.692-31.628-21.015 10.364-70.692-67.68-70.692-67.68v99.308zM632.343 365.502c0 0-43.939-49.664 0-91.694 0 0-112.705 57.302 0 91.694zM597 166.842c-35.346 0 41.071 68.78 52.535 38.204 0 0-17.189-38.204-52.535-38.204zM676.286 243.256c3.802 87.868 103.312 103.144 103.312 103.144 3.967-99.342-103.312-103.144-103.312-103.144zM718.288 625.293c11.487 80.24 122.269 118.42 122.269 118.42 7.625-91.694-122.269-118.42-122.269-118.42z" />
<glyph unicode="&#xe90a;" glyph-name="job-gsm" d="M983.051 336.82c0 0 20.365 75.113-63.66 138.775-76.401 66.201-10.182 124.766-190.974 109.486 0 0-11.872 100.294-62.532 35.644 0 0-45.24 84.027-119.932 84.027 0 0 27.141 114.584-33.953 114.584-61.104 0-33.962-114.584-33.962-114.584-74.701 0-119.932-84.027-119.932-84.027-50.658 64.65-62.539-35.644-62.539-35.644-180.775 15.277-114.584-43.288-190.974-109.486-84.017-63.66-63.652-138.775-63.652-138.775s-68.764-36.93-28.008-90.392c40.739-53.47 122.323-38.19 122.323-38.19 45.93-12.731 65.167 12.731 65.167 12.731-23.849 7.644-57.629 95.487 110.415 95.487 167.921 0 201.095-95.337 201.157-95.477v0c0.052 0.148 33.219 95.477 201.147 95.477 168.044 0 134.256-87.844 110.415-95.487 0 0 19.237-25.462 65.167-12.731 0 0 81.567-15.277 122.323 38.19 40.749 53.46-27.991 90.392-27.991 90.392zM823.571 537.462c0 0-77.319 7.644-138.433-25.462 0 0 50.229 84.027 138.433 25.462zM685.139 598.573c0 0-2.549-24.708-28.008-40.362s0 53.093 28.008 40.362zM512 575.66c50.921-25.462 0-128.723 0-128.723s-50.921 103.254 0 128.723zM366.869 558.203c-25.462 15.654-28.008 40.362-28.008 40.362 28.008 12.738 53.477-56.009 28.008-40.362zM338.861 512c-61.104 33.105-138.433 25.462-138.433 25.462 88.193 58.565 138.433-25.462 138.433-25.462zM84.235 405.341c0 9.998 9.114 18.107 20.365 18.107s20.374-8.116 20.374-18.107c0-10.007-9.123-18.107-20.374-18.107s-20.365 8.106-20.365 18.107zM99.505 282.843c0 0-43.27 66.201 78.947 73.845 0 0-81.495-40.756-78.947-73.845zM210.008 417.791c-124.756 119.967 29.55 74.578 29.55 74.578-68.939-9.737-29.55-74.578-29.55-74.578zM382.139 430.522c-78.93 17.809-112.035 0-112.035 0 20.382 73.845 112.035 0 112.035 0zM295.574 387.234c43.288 40.739 107.184 0 107.184 0h-107.184zM421.573 649.155l0.034-0.027c6.725 7.25 16.294 11.82 26.966 11.82 20.33 0 36.826-16.486 36.826-36.826 0-8.579-2.967-16.469-7.89-22.729v-0.017c0 0-0.034-0.017-0.034-0.027-3.265-4.149-7.397-7.555-12.135-9.998-15.602-16.242-38.19-54.248-16.767-127.822 0 0.010-81.619 141.102-27.001 185.623zM564.891 366.335c-25.733-15.612-52.891-58.048-52.891-58.048s-27.159 42.438-52.891 58.048c-9.010 3.694-15.033 5.629-15.033 5.629 4.797-0.428 9.884-2.494 15.033-5.629 14.174-5.804 35.758-16.006 52.891-30.032 17.134 14.026 38.708 24.226 52.891 30.032 5.139 3.125 10.227 5.201 15.033 5.629 0 0-6.040-1.936-15.033-5.629zM575.423 463.539c21.423 73.564-1.182 111.57-16.774 127.822-4.728 2.433-8.87 5.848-12.135 9.998-0.010 0.010-0.044 0.027-0.044 0.027l0.017 0.017c-4.93 6.26-7.89 14.139-7.89 22.729 0 20.34 16.486 36.826 36.826 36.826 10.672 0 20.251-4.56 26.966-11.82l0.027 0.027c54.618-44.531-26.994-185.623-26.994-185.623zM621.242 387.234c0 0 63.906 40.739 107.184 0h-107.184zM641.851 430.522c0 0 91.67 73.845 112.035 0 0 0-33.105 17.818-112.035 0zM813.985 417.791c0 0 39.399 64.834-29.54 74.578 0 0 154.298 45.388 29.54-74.578zM924.478 282.843c2.549 33.086-78.939 73.845-78.939 73.845 122.227-7.644 78.939-73.845 78.939-73.845zM919.391 387.234c-11.251 0-20.374 8.106-20.374 18.107s9.123 18.107 20.374 18.107c11.241 0 20.365-8.116 20.365-18.107 0-9.998-9.123-18.107-20.365-18.107z" />
<glyph unicode="&#xe90b;" glyph-name="job-cul" d="M790.325 726.758c-19.766 0-38.927-2.471-57.249-7.093 0 0-190.554-170.162-62.633-192.408 0 0-231.018-91.586 16.096 192.408-42.67 46.064-103.642 74.914-171.37 74.914-57.313 0-109.772-20.649-150.424-54.891 0 0-193.495-190.185-65.594-212.431 0 0-227.861-90.323 11.093 186.627-23.991 8.336-49.746 12.878-76.575 12.878-129.017 0-233.602-104.576-233.602-233.593s104.585-233.602 233.602-233.602c19.706 0 38.806 2.451 57.085 7.044 68.109-23.518 149.225-37.174 236.289-37.174 82.203 0 159.098 12.18 224.735 33.322 12.538-2.082 25.415-3.189 38.55-3.189 129.017 0 233.602 104.585 233.602 233.602s-104.585 233.593-233.602 233.593z" />
<glyph unicode="&#xe90c;" glyph-name="job-crp" d="M848.546 49.861c2.659 39.772 74.226 121.954 108.694 156.408 34.476 34.476 19.881 83.517 19.881 83.517l-215.582 215.593-53.631-39.163 11.23 31.191-526.517 526.528-148.817-148.828v-45.863h13.575v-13.613h13.583v-13.613h13.575v-13.605l13.564-0.011v-13.605h13.583v-13.624h13.583v-13.613h13.583v-13.613h13.564v-13.605h13.583v-13.613h13.575l0.011-13.624h13.575v-13.605h13.575v-13.624h13.575v-13.605h13.594v-13.613h13.575v-13.613h13.575v-13.613h13.564l0.019-13.613h13.564v-13.605h13.583v-13.624h13.583v-13.613h13.575v-13.613h13.575v-13.613h13.583v-13.613h13.583v-13.613h13.575v-13.613h13.564v-13.613h13.594v-13.613h13.575v-13.605h13.575v-13.613h13.583v-13.613h13.583v-13.613h13.575v-13.613h13.575v-13.613h13.583v-13.605h13.583v-13.633h13.564v-13.605h13.583v-13.613h13.583v-13.613h13.575v-13.605h13.575v-13.624h13.575v-13.605h13.583v-13.624h13.575v-13.605h13.583v-13.613h13.583v-13.613h13.575v-13.613h13.575v-13.613h48.412v0.745l0.383-0.372 37.988 37.988h72.395v74.444h-5.63c2.61 1.313 5.189 2.088 7.729 2.088 18.468 0 59.741-27.933 59.741-59.741 0-31.817-107.37-107.37-144.483-144.483s31.817-76.886 46.393-94.118c14.466-17.106 40.989 4.11 43.637 43.883zM775.817 329.375c-11.71 11.721-11.71 30.708 0 42.421s30.708 11.71 42.421 0c11.721-11.71 11.721-30.7 0-42.421-11.71-11.71-30.7-11.71-42.421 0z" />
<glyph unicode="&#xe90d;" glyph-name="job-bsm" d="M736.68 739.173l-40.367 66.564h-678.37c0 0-17.927-25.604-17.927-40.96s15.356-40.953 15.356-40.953h602.899v-20.584h-542.191c0 0 10.363-63.89 82.346-96.327 71.986-32.428 106.112-68.265 107.813-131.405 1.708-63.15-107.813-146.724-107.813-146.724v-110.524h166.69v58.86c2.24 0.75 4.819 1.586 7.687 2.466v55.679c0 0 17.064 64.848 104.1 73.38 0 0-75.089-39.252-78.503-71.679v-50.267c56.63 13.988 155.352 27.060 214.736-29.57v-38.877h184.174v110.524h-12.358c0 0-94.715 26.398-94.715 90.401s151.031 82.878 151.031 82.878 184.311 50.242 222.72 237.117h-287.306z" />
<glyph unicode="&#xe90e;" glyph-name="job-arm" d="M916.184 256.452c-23.081 7.695-156.428 110.266-156.428 110.266 33.314 15.386 12.811 51.292 12.811 51.292-23.081 43.587 25.646 158.98 25.646 158.98-2.565-105.136 94.89-117.91 94.89-117.91-25.67 43.645-2.575 269.209-112.831 415.377-110.266 146.145-243.61 115.392-352.271 128.194-53.881 6.377-73.966 14.631-80.555 21.318-0.455-81.145 80.555-116.185 80.555-116.185-206.066-17.951-197.784-229.494-219.581-252.575-21.787-23.081-32.057-57.689-32.057-57.689h205.668c136.438 179.496 225.119 55.128 225.119 55.128-137.179 71.809-209.766-106.417-209.766-106.417h-215.891c-2.565-24.352-76.938-116.663-75.654-139.818s160.968-128.756 160.968-128.756l70.43 24.197-56.287-46.294 81-99.43 114.796 58.434c16.947 9.97 35.532 19.569 56.038 28.521l-56.038-28.521c-153.85-90.613-168.64-214.512-168.64-214.512 194.549 12.821 418.313 207.707 432.573 227.721 14.237 20.001 198.563 20.995 175.505 28.69zM305.048 297.99l-91.209 94.135 14.729 14.274 91.209-94.145-14.729-14.261zM331.355 353.438l-61.239 63.217 14.729 14.274 61.239-63.217-14.729-14.274zM361.062 402.705l-40.783 42.101 14.729 14.274 40.783-42.101-14.729-14.274zM387.389 443.559l-25.441 26.246 14.739 14.274 25.43-26.256-14.729-14.261zM412.712 78.287c-8.46 0-15.316 6.856-15.316 15.316 0 8.45 6.856 15.302 15.316 15.302 8.45 0 15.292-6.856 15.292-15.302 0-8.46-6.842-15.316-15.292-15.316zM517.44 149.951c-8.45 0-15.292 6.842-15.292 15.316 0 8.45 6.842 15.302 15.292 15.302 8.473 0 15.329-6.856 15.329-15.302 0-8.473-6.856-15.316-15.329-15.316zM557.744 624.78c-30.715 0-55.607-24.901-55.607-55.63 0-11.48 3.475-22.134 9.431-31.002-13.014 10.186-21.393 26.030-21.393 43.827 0 30.702 24.901 55.617 55.607 55.617 19.246 0 36.203-9.768 46.186-24.615-9.431 7.381-21.295 11.803-34.227 11.803zM639.331 212.437c-8.46 0-15.316 6.856-15.316 15.302s6.856 15.316 15.316 15.316c8.436 0 15.292-6.866 15.292-15.316s-6.856-15.302-15.292-15.302z" />
<glyph unicode="&#xe90f;" glyph-name="job-alc" d="M580.501 1023.448c-43.976 8.455-142.048-93.016-150.504-126.83s68.318-65.954 68.318-65.954c-109.251 32.144-110.849 0-110.849 0 3.147-79.451-119.8-282.386-188.342-313.184-68.501-30.824-59.967-107.848-59.967-107.848 226.583-69.33 718.652-8.455 718.652-8.455-508.984-109.915-757.571 8.455-774.471 20.287-16.899 11.843-38.893 6.775-38.893-20.302 0-27.035 123.453-70.996 123.453-70.996-6.775-60.875 59.195-116.679 114.983-160.655 55.804-43.95-57.499-43.961-45.401-101.449 12.109-57.499 182.382-59.195 208.43-59.195s31.435 74.398 54.993 74.398c23.569 0 25.475-6.763 40.72-43.95 15.219-37.227 69.315-40.6 109.904-38.919 40.588 1.696 121.747 27.061 111.892 69.342-9.843 42.269-61.168 74.41-61.168 74.41 104.847 57.484 162.346 180.915 162.346 180.915s106.528 10.151 89.617 82.869c-16.911 72.703-103.129 66.543-103.129 66.543-15.245 80.082-65.954 136.38-87.655 156.412-21.686 20.047-61.168 22.234-61.168 22.234s-64.263 87.937-87.922 111.596c-23.674 23.674-6.775 76.105-30.438 99.768-23.648 23.674-8.455 65.943 20.287 62.567 28.757-3.387 249.428-154.731 301.007-206.296 51.565-51.576 74.398-32.129 74.398 0-0.026 32.118-355.13 294.233-399.091 302.688zM718.802 614.979c2.161-41.429 89.403-109.037 89.403-109.037-98.125 37.092-89.403 109.037-89.403 109.037zM424.997 465.612c-22.729 16.618-37.52 43.507-37.52 73.866 0 50.469 40.949 91.418 91.444 91.418 28.288 0 53.579-12.859 70.343-33.037-15.11 11.059-33.746 17.593-53.924 17.593-50.484 0-91.418-40.934-91.418-91.418-0.015-22.207 7.896-42.573 21.074-58.418zM502.611 475.827c-20.966-4.269-41.654 1.842-56.711 14.791 13.099-4.348 27.489-5.454 41.988-2.495 36.106 7.349 61.768 37.452 65.103 72.331 0.6-1.999 1.122-4.040 1.561-6.122 7.322-36.012-15.913-71.157-51.936-78.506z" />
<glyph unicode="&#xe910;" glyph-name="job-min" d="M362.533 778.152c97.153-26.503 581.202-699.587 581.202-699.587s54.776-33.569 104.247 0c49.456 33.569-4.925 144.441-4.925 144.441l-69.272-64.949 65.995 69.493-308.047 320.938-54.766-24.73 47.894 31.318-123.851 127.667-31.796-17.671 26.895 22.191-115.205 150.956c0 0-24.716 72.423 8.829 88.321 0 0 22.967 26.489 22.967 75.97 0 0 83.039 72.423 105.996 72.423 0 0-81.28 61.832-194.317-88.335l-81.28-12.365-53.017-58.299v-33.559c0 0-98.927-132.496-95.39-236.728 0 0-116.584-166.068-121.894-197.864-5.296-31.796 173.137 158.999 173.137 158.999s19.434 197.864 116.598 171.364z" />
<glyph unicode="&#xe911;" glyph-name="job-fsh" d="M901.405 276.623c-220.727 103.718-248.658 230.077-248.658 230.077l51.864-43.869v99.72l-134.292 99.731 63.833-39.899-9.311 87.766c-63.833 51.864-132.965 184.839-132.965 184.839h-148.941c-158.239 125.019-337.764 128.953-337.764 128.953-17.293-236.679 71.814-377.625 71.814-377.625l163.549 15.962 49.197 101.061-42.542-113.026-163.563-17.293c10.628-29.247 53.194-89.092 53.194-89.092 25.263-102.388 81.125-134.316 81.125-134.316v172.875l14.622-111.709c27.931-11.954 198.135-210.113 198.135-210.113 43.883 47.88 115.672 43.883 115.672 43.883l-101.047 74.481c34.498-11.78 115.794-61.336 183.659-120.064 8.229-7.101 16.263-14.349 23.972-21.674l121.765 17.069-112.097-29.146c57.178-155.582 164.345-225.172 164.345-225.172-6.641 192.796 194.126 178.185 194.126 178.185s-33.255 70.498-119.694 98.404zM136.808 876.369c-14.709 0-26.615 11.906-26.615 26.604s11.906 26.604 26.615 26.604c14.699 0 26.604-11.906 26.604-26.604s-11.916-26.604-26.604-26.604z" />
<glyph unicode="&#xe912;" glyph-name="job-btn" d="M926.594 81.781c-214.825 76.709-219.556 212.458-219.623 222.469v-109.14c-31.874 19.491-63.759 56.698-63.759 56.698 42.498 136.358-143.46 387.84-143.46 387.84 19.491-30.131 53.134-166.489 53.134-166.489-84.982 191.287-145.203 283.382-145.203 283.382 17.711-67.308 0-123.98 0-123.98-49.596 155.853-93.864 228.468-93.864 228.468-1.769-60.21 0-102.719 0-102.719-47.854 122.185-102.757 193.045-102.757 193.045 9.678-43.373 19.308-152.316 20.995-165.584 0.067-0.28 0.28-0.666 0.28-0.879 0-0.838-0.105-0.464-0.28 0.879-2.805 11.474-62.401 79.567-91.803 110.681-30.131 31.874-113.355 127.502-113.355 127.502 111.253-265.151 133.329-291.654 137.33-293.898 0.254-0.015 0.546-0.052 0.797-0.079 0 0-0.146-0.28-0.797 0.079-37.551 2.831-117.85 79.623-117.85 79.623 76.178-168.258 143.46-193.056 143.46-193.056-70.846 12.393-120.431 60.21-120.431 60.21 79.701-131.040 208.988-203.666 208.988-203.666-58.467 21.26-145.229 86.788-145.229 86.788 150.506-205.435 251.471-237.323 251.471-237.323-31.859 3.538-86.762 28.336-86.762 28.336 152.316-207.204 324.111-154.070 324.111-154.070l37.165-24.798c-102.772-12.087-147.155-65.513-147.155-65.513 75.976 15.931 258.73-7.087 258.73-7.087s173.565-141.676 216.033-86.777c42.536 54.888-60.169 69.065-60.169 69.065zM267.178 583.152c-5.105-6.582-21.447-2.435-36.515 9.256-15.105 11.675-23.19 26.474-18.097 33.044s21.447 2.435 36.541-9.256c15.064-11.675 23.164-26.474 18.070-33.044zM317.639 696.227c8.138 1.623 17.764-12.259 21.436-30.969 3.725-18.71 0.093-35.183-8.059-36.806-8.153-1.608-17.764 12.259-21.447 30.969-3.695 18.71-0.079 35.21 8.070 36.806zM367.837 433.6c-5.079-6.567-21.436-2.435-36.515 9.241-15.052 11.687-23.149 26.5-18.055 33.056s21.436 2.435 36.515-9.241c15.079-11.687 23.149-26.474 18.055-33.056zM410.014 543.088c-3.669 18.721-0.079 35.198 8.085 36.806 8.153 1.623 17.764-12.248 21.447-30.954 3.695-18.695 0.105-35.183-8.044-36.791-8.19-1.623-17.79 12.248-21.489 30.943zM479.158 292.882c-5.094-6.582-21.462-2.435-36.526 9.241-15.079 11.687-23.19 26.489-18.055 33.056 5.094 6.556 21.436 2.435 36.515-9.256 15.079-11.66 23.149-26.489 18.070-33.044zM547.038 347.743c-8.153-1.623-17.764 12.248-21.474 30.954-3.695 18.684-0.079 35.183 8.070 36.806 8.138 1.623 17.764-12.248 21.462-30.969s0.079-35.183-8.059-36.791z" />
<glyph unicode="&#xe913;" glyph-name="job-smn" d="M971.528 787.302c-1.861 24.187-23.059 42.342-47.153 40.469-24.187-1.846-42.301-22.98-40.469-47.168 6.594-86.172 4.358-164.599-6.537-235.169-255.207 22.113-784.909 478.467-784.909 478.467 203.192-550.447 212.521-854.72 210.608-935.009-114.004-2.538-199.764 14.791-201.584 15.164-23.724 4.983-47.007-10.182-52.016-33.902-5.039-23.75 10.152-47.059 33.902-52.072 7.483-1.581 87.914-17.994 197.97-17.994 145.779 0 343.401 28.811 492.036 158.988 153.101 134.098 219.75 345.461 198.153 628.219zM715.764 225.455c-91.861-80.644-209.094-116.048-316.504-129.579-7.364 305.231-127.093 688.066-127.093 688.066 394.090-306.217 581.998-338.736 581.998-338.736l0.161-0.078c-28.295-89.988-74.502-163.466-138.561-219.672z" />
<glyph unicode="&#xe914;" glyph-name="job-rdm" d="M766.179 253.856c0-51.896-42.085-93.969-93.99-93.969-51.884 0-93.969 42.073-93.969 93.969 0 51.905 42.085 93.978 93.969 93.978 51.905 0.012 93.99-42.061 93.99-93.978zM842.856 421.803c-44.373 43.503-105.155 70.336-172.194 70.336-135.891 0-246.033-110.151-246.033-246.042 0-135.87 110.151-246.021 246.033-246.021 12.132 0 24.029 0.892 35.702 2.59 10.458 1.514 20.677 3.687 30.627 6.468l-8.835 46.994c-9.95-1.998-20.172-3.18-30.585-3.461-1.699-0.054-3.364-0.076-5.042-0.076-104.533 0-189.259 88.885-189.259 198.544s84.726 198.553 189.259 198.553c47.586 0 91.077-18.44 124.339-48.886 11.207-10.252 21.266-21.88 29.907-34.626l26.997 18.764c-9.092 13.293-19.453 25.631-30.917 36.862zM620.725 454.57l13.015 34.819 38.452 534.527 55.916-538.534zM453.376 442.072l-24.609 16.678-147.821 107.401 98.805-150.218c-19.311-32.607-30.273-64.382-35.206-94.613h-194.331l192.653-66.791c3.352-30.745 12.005-58.86 22.708-83.384l-115.837-100.975 137.729 59.053c22.675-37.119 45.201-59.053 45.201-59.053-123.982 229.407 20.71 371.899 20.71 371.899z" />
<glyph unicode="&#xe915;" glyph-name="job-blu" d="M959.049 771.183c0 0-57.086 140.791-167.444 133.192-110.358-7.623-3.795-88.063 19.039-85.888 22.812 2.162 38.059-66.342-11.44-89.166-49.474-22.825-234.035-87.534-284.461-83.717-50.405 3.816-446.194 140.791-514.689 140.791v-15.213c0 0 60.902-344.618 266.405-394.935 152.209 0 281.594 180.58 323.469 21.979-102.756-178.862-129.397-278.915-129.397-278.915l232.131 256.932c0 0 144.61-9.773 235.926 108.853 91.338 118.65 144.598 308.906 30.457 286.082zM121.842 664.632c0 0 175.043-25.342 312.029-107.804 0 0-224.499-181.422-312.029 107.804zM598.938 556.825c137.008 82.461 312.029 107.804 312.029 107.804-87.491-289.229-312.029-107.804-312.029-107.804z" />
<glyph unicode="&#xe916;" glyph-name="job-blm" d="M793.228 527.413c-74.52 117.69 230.695 483.997 230.695 483.997-135.708-18.093-438.748-269.142-477.219-237.473-38.461 31.669 58.13 237.473 58.13 237.473-208.752-65.578-478.97-412.632-478.97-412.632l-0.024-0.062c-76.502-60.125-125.775-153.399-125.775-258.022 0-180.922 147.182-328.104 328.104-328.104 103.636 0 196.174 48.355 256.336 123.635v-0.038c368.006 289.533 391.921 463.592 391.921 463.592s-142.145-137.177-183.196-72.37zM328.181 98.219c-133.716 0-242.475 108.787-242.475 242.475s108.773 242.475 242.475 242.475c133.702 0 242.499-108.787 242.499-242.475s-108.797-242.475-242.499-242.475zM646.631 261.633h-0.024c6.289 25.322 9.702 51.792 9.702 79.061 0 180.922-147.209 328.104-328.128 328.104-15.94 0-31.597-1.197-46.938-3.399 77.434 90.081 193.091 196.738 193.091 196.738s-15.829-104.025 42.985-151.527c58.776-47.499 339.248 158.301 339.248 158.301-113.080-147.013-174.144-341.511-133.434-382.222s137.948-20.343 137.948-20.343c-70.092-97.251-214.449-204.713-214.449-204.713z" />
<glyph unicode="&#xe917;" glyph-name="job-sam" d="M936.499 798.279l-23.204-22.158c45.651-83.028 50.125-258.090 6-202.719-44.147 55.349-106.232 116.676-196.763 118.924-73.173 1.838-146.847-38.423-172.378-53.877l-59.78 205.825-58.408-243.56c-56.883-34.405-121.363-33.948-184.447 10.086-79.308 55.349-29.927 218.43 201.983 296.225 231.901 77.805 343.375-8.23 343.375-8.23l24.228 24.35c-85.198 63.331-190.782 100.821-305.096 100.821-282.75 0-511.946-229.208-511.946-511.946 0-114.994 37.9-221.113 101.898-306.577l21.789 21.789c-52.173 89.441-47.686 217.615-26.812 295.122 20.856 77.504 22.359 49.167 96.856-10.334 56.194-44.858 158.941-46.709 206.139-44.905l-51.128-213.053h312.991l-75.544 260.16c133.332 115.805 215.032 31.265 246.954 5.132 32.79-26.821 52.173-247.424-132.652-351.739-271.784-153.452-454.583-61.104-454.583-61.104l-17.724-20.655c81.224-54.19 178.804-85.812 283.765-85.812 282.75 0 511.971 229.23 511.971 511.971-0.022 106.019-32.267 204.557-87.481 286.257zM429.263 346.458l29.505 130.282 32.533 143.731 75.099-274.023h-137.14z" />
<glyph unicode="&#xe918;" glyph-name="job-nin" d="M618.667 185.251c71.984 47.206 123.266 123.45 136.961 211.992l0.026-0.015v0.077c2.404 15.526 3.646 31.43 3.646 47.621 0 1.36-0.077 2.72-0.103 4.076 26.086 585.774-503.062 557.887-503.062 557.887 280.98-117.62 331.193-284.185 331.193-284.185l0.051-0.103c-41.729 20.885-88.737 32.713-138.479 32.713-17.694 0-34.999-1.569-51.871-4.418 1.867 2.849-581.97-103.403-336.93-733.976 0 0-49.415 270.92 78.467 426.006 0.89-138.152 92.449-255.184 218.094-294.378h-0.026c499.129-172.236 667.311 201.641 667.311 201.641-156.762-163.334-405.124-164.944-405.279-164.944zM230.013 444.916c0 120.704 98.198 218.906 218.906 218.906 120.719 0 218.906-98.198 218.906-218.906s-98.198-218.906-218.906-218.906c-120.704 0-218.906 98.198-218.906 218.906z" />
<glyph unicode="&#xe919;" glyph-name="job-mnk" d="M4.193 512c15.774 34.013 33.924 65.101 52.842 95.271 26.674 20.646 52.413 42.479 78.657 63.652l391.862 319.983c16.771 6.11 33.553 12.219 50.894 17.669l26.006 8.145c8.915 2.395 17.591 5.091 26.736 7.258-3.942-8.524-8.325-16.482-12.458-24.748l-13.197-23.849c-8.794-15.892-18.13-31.119-27.474-46.351l-391.862-319.972c-25.997-21.485-52.511-42.33-78.090-64.343-33.354-12.5-67.437-24.068-103.916-32.716zM206.912 265.533c15.774 34.013 33.924 65.101 52.842 95.271 26.674 20.646 52.413 42.479 78.657 63.652l391.862 319.983c16.771 6.11 33.553 12.219 50.894 17.669l26.006 8.145c8.915 2.395 17.591 5.091 26.736 7.258-3.942-8.524-8.325-16.482-12.458-24.748l-13.197-23.849c-8.794-15.892-18.11-31.119-27.474-46.351l-391.862-319.972c-25.997-21.485-52.511-42.33-78.090-64.343-33.345-12.489-67.426-24.060-103.916-32.716zM392.801 0.021c15.774 34.022 33.924 65.101 52.842 95.271 26.696 20.634 52.413 42.479 78.657 63.664l391.882 319.983c16.771 6.098 33.553 12.2 50.874 17.661l26.025 8.137c8.915 2.415 17.61 5.102 26.736 7.267-3.942-8.516-8.325-16.482-12.458-24.748l-13.177-23.861c-8.816-15.884-18.13-31.099-27.494-46.342l-391.882-319.972c-25.997-21.494-52.511-42.339-78.090-64.343-33.354-12.489-67.437-24.080-103.916-32.716z" />
<glyph unicode="&#xe91a;" glyph-name="job-drg" d="M822.083 734.365l0.109 0.226c0 0-64.108-59.394-98.939-58.043-34.831 1.338-61.621 40.178-61.621 40.178v217.521c0.13 14.95-0.268 29.9 0.268 44.85-7.993 14.962-15.881 29.9-27.061 44.862-11.155-14.962-19.064-29.9-27.061-44.862 0.546-14.95 0.172-29.9 0.268-44.85v-220.382c-7.053-14.799-43.575-85.683-95.789-86.883-54.378-1.242-97.664 82.639-103.192 93.827v213.91c0.13 14.456-0.268 28.894 0.268 43.361-8.039 14.468-15.99 28.924-27.212 43.37-11.243-14.447-19.194-28.903-27.233-43.37 0.546-14.468 0.151-28.903 0.268-43.361v-215.764c-54.11-102.348-157.926 21.572-157.926 21.572 4.898-34.111 12.228-67.164 19.441-100.247 13.524-30.383 26.353-61.066 39.533-91.609l196.742-458.493c15.42-22.591 30.789-45.224 47.153-67.42l9.591-22.699 3.774 8.819c20.427 26.567 38.934 53.971 57.582 81.297l39.331 91.714 157.389 366.775c13.202 30.542 26.042 61.226 39.533 91.609 7.246 33.095 14.543 66.145 19.462 100.247-1.607-2.038-3.12-4.126-4.684-6.161zM705.698 553.848c-28.303-67.634-152.588-153.263-152.588-153.263v-21.488c29.472-15.496 49.564-46.243 49.564-81.662 0-37.725-22.775-70.1-55.385-84.492 3.686-9.473 5.82-20.394 5.82-32.055 0-36.266-20.385-65.642-45.547-65.642s-45.547 29.376-45.547 65.642c0 12.325 2.411 23.824 6.505 33.683-30.811 15.068-52.051 46.469-52.051 82.865 0 32.538 16.997 61.109 42.599 77.569l2.948 33.62c-53.275 16.397-109.217 93.366-132.312 128.164-10.17 11.541-16.385 26.675-16.385 43.295 0 36.254 29.385 65.642 65.642 65.642 19.848 0 37.574-8.831 49.61-22.742 4.588-5.293 8.349-11.297 11.050-17.856 20.846-15.764 59.951-35.763 72.629-35.763 19.429 0 83.688 53.615 83.688 53.615 12.035 13.91 29.783 22.742 49.61 22.742 36.254 0 65.642-29.385 65.642-65.642 0-9.335-1.971-18.196-5.486-26.235z" />
<glyph unicode="&#xe91b;" glyph-name="job-dnc" d="M689.628 807.647c-84.253 0-172.287 203.469-177.518 215.743v0.337c0 0-0.018-0.066-0.074-0.179-0.113 0.253-0.187 0.421-0.187 0.421v-0.831c-5.231-12.274-93.262-215.743-177.518-215.743-86.863 0-229.933-98.793-229.933-187.358s97.080-224.837 194.178-330.447c94.572-102.871 207.518-280.078 213.273-289.171v-0.132c0 0 0.037 0.037 0.055 0.055 0.113-0.187 0.197-0.308 0.197-0.308v0.637c5.773 9.083 118.7 186.3 213.291 289.171 97.080 105.594 194.178 241.871 194.178 330.439 0.011 88.576-143.081 187.369-229.944 187.369zM786.034 512l-274.045-276.515-273.895 276.515c0 0-78.809 117.324 8.757 169.856 87.537 52.529 159.77-50.555 135.69-183.972 0 0 111.628 43.885 111.628 131.432s-78.791 118.195-78.791 118.195 72.868 61.072 96.622 93.946v0.179c0.018-0.029 0.037-0.055 0.074-0.095 0.018 0.037 0.037 0.066 0.055 0.095v-0.179c23.754-32.874 96.622-93.946 96.622-93.946s-78.791-30.637-78.791-118.195 111.628-131.432 111.628-131.432c-24.081 133.406 48.143 236.501 135.69 183.972 87.547-52.521 8.757-169.856 8.757-169.856z" />
<glyph unicode="&#xe91c;" glyph-name="job-mch" d="M713.712 0.069c-0.235 0-0.46 0-0.696 0.023-12.91 0.212-24.958 6.443-32.581 16.869l-150.781 206.128c-13.45 18.386-9.448 44.169 8.928 57.632 18.386 13.417 44.169 9.435 57.609-8.951l118.66-162.207 64.689 82.498-122.394 163.161c-7.043 9.388-9.753 21.354-7.434 32.85 2.296 11.509 9.412 21.483 19.529 27.42l131.285 77.115-627.172 456.779c-18.409 13.417-22.474 39.2-9.070 57.609 13.417 18.386 39.177 22.451 57.609 9.047l678.010-493.79c11.224-8.186 17.574-21.483 16.915-35.361-0.696-13.874-8.328-26.479-20.317-33.522l-145.716-85.586 113.642-151.556c11.201-14.911 10.979-35.5-0.53-50.179l-117.789-150.178c-7.785-9.988-19.754-15.809-32.402-15.809zM396.039 338.662c-3.134 0-4.9 0.119-5.088 0.119-12.284 0.941-21.768 11.177-21.768 23.488v149.744c0 13.003 10.541 23.557 23.557 23.557 13.003 0 23.557-10.555 23.557-23.557v-124.998c34.582 5.042 99.953 27.788 120.767 126.667l-420.031 297.58c-10.624 7.527-13.132 22.225-5.618 32.826s22.225 13.132 32.85 5.618l432.268-306.247c7.291-5.171 11.048-14.030 9.66-22.838-26.94-172.841-162.134-181.958-190.157-181.958z" />
<glyph unicode="&#xe91d;" glyph-name="job-brd" d="M598.96 296.885c0-19.208 15.576-34.783 34.783-34.783 19.186 0 34.739 15.576 34.739 34.783v405.763c0 19.208-15.553 34.783-34.739 34.783-19.208 0-34.783-15.576-34.783-34.783v-405.763zM423.416 296.885c0-19.208 15.553-34.783 34.739-34.783 19.208 0 34.783 15.576 34.783 34.783v405.763c0 19.208-15.576 34.783-34.783 34.783-19.186 0-34.739-15.576-34.739-34.783v-405.763zM249.514 296.885c0-19.208 15.553-34.783 34.739-34.783 19.208 0 34.783 15.576 34.783 34.783v405.763c0 19.208-15.576 34.783-34.783 34.783-19.186 0-34.739-15.576-34.739-34.783v-405.763zM825.026 1023.966c-40.030 0-72.92-30.533-76.663-69.57h-562.655c-35.202 0-63.727-28.547-63.727-63.749v-25.536c0-35.224 28.525-63.771 63.727-63.771 28.864 0 53.179 19.141 61.065 45.398h505.685c3.416-9.644 8.695-18.408 15.417-25.841v-538.857c0 0-145.218-352.606-584.219-84.616 0 0 73.313-197.382 341.192-197.382s347.226 281.998 347.226 281.998v529.495c18.171 14.097 29.933 36.081 29.933 60.862v74.554c0.013 42.498-34.469 77.012-76.98 77.012z" />
<glyph unicode="&#xe91e;" glyph-name="job-rpr" d="M913.070 409.287c-82.537-47.077-409.63-228.66-640.124-129.003l58.082 208.483c0 0 53.19-149.79 207.26-149.79s237.219 136.95 237.219 236.607c0 121.667-100.88 183.417-100.88 183.417s9.17 80.703-6.115 80.703-69.698-48.3-69.698-48.3-78.258 23.233-174.245-20.175c0 0 77.647 237.219 50.745 250.67-25.067 12.228-37.905-23.233-37.905-23.233l-246.39-670.082c0 0-59.915 89.875-26.29 231.717 12.84 52.58-61.14-56.86-74.59-104.547s-54.413-165.075 56.248-261.675c0 0-45.243-184.028-25.067-193.199s110.050 154.070 110.050 154.070 240.275-91.708 511.732 92.93c124.112 83.15 283.685 226.214 169.965 161.407zM543.18 706.422c77.035 0 139.397-62.362 139.397-139.397s-62.362-139.397-139.397-139.397c-77.035 0-139.397 62.362-139.397 139.397s62.362 139.397 139.397 139.397z" />
<glyph unicode="&#xe91f;" glyph-name="job-sge" d="M665.593 839.703c-15.828 15.828-111.384 65.072-136.591 133.074-29.312 77.382-42.796 76.796-73.278 0-26.967-67.417-120.177-117.246-136.591-133.074-15.828-15.828-1.172-29.897-1.172-29.897 120.763-75.624 137.178-157.695 137.178-157.695 0-117.833 2.345-187.594 6.448-229.215-40.449-9.965-106.694-51.588-106.694-60.968 0-10.552 6.448-14.656 6.448-14.656l100.245-111.384c0-220.423-0.587-229.215 29.312-229.215h2.345c29.897 0.587 28.725 8.793 28.725 229.215l100.245 111.384c0 0 6.448 4.104 6.448 14.656 0 9.38-65.072 50.416-105.521 60.968 4.689 41.622 6.448 111.384 6.448 229.215 0 0 12.897 82.073 133.661 157.695 0-0.587 18.173 14.069 2.345 29.897zM523.724 390.65c8.208 0 36.932-32.829 36.932-32.829-13.484-19.932-65.657-58.624-65.657-58.624l-2.932-2.345-2.932 2.345c0 0-52.174 38.692-65.657 58.624 0 0 28.725 32.829 36.932 32.829 5.863 0 8.793-14.069 16.415-22.277 0 0 0 0 0 0 2.932-3.517 7.035-5.863 11.724-5.863 1.172 0 5.863 0 7.621 0s3.517 0.587 5.276 1.172c5.276 1.759 9.38 5.863 13.484 15.241 2.932 6.448 5.276 11.724 8.793 11.724zM328.51 658.558c-15.241 8.793-95.556 26.967-126.626 72.693-39.277 50.416-46.312 48.657-54.52-14.069-7.035-55.105-66.83-110.21-75.624-124.866s4.689-22.277 4.689-22.277c104.349-32.829 131.902-90.865 131.902-90.865 51.588-198.731 63.9-211.043 80.9-208.111 0 0 4.104 1.172 4.104 1.172 16.415 5.276 21.104 22.277-29.897 221.008 0 0-6.448 63.313 68.589 142.454 0.587 0 11.724 14.069-3.517 22.864zM653.282 658.558c15.241 8.793 95.556 26.967 126.626 72.693 39.864 49.829 46.312 48.657 54.52-14.069 7.035-55.105 66.83-110.21 75.624-124.866s-4.689-22.277-4.689-22.277c-104.349-32.829-131.902-90.865-131.902-90.865-51.588-198.731-63.9-211.043-80.9-208.111 0 0-4.104 1.172-4.104 1.172-16.415 5.276-21.104 22.277 29.897 221.008 0 0 6.448 63.313-68.589 142.454-0.587 0-11.724 14.069 3.517 22.864z" />
<glyph unicode="&#xe920;" glyph-name="job-thm" d="M796.78 244.64c-78.61-62.7 72.772 147.331 39.305 178.69-33.485 31.351-195.057-51.731-209.59-54.857-14.57-3.144-112.158 0.678-112.158 0.678s-97.58-3.822-112.139-0.678c-14.552 3.134-176.123 86.206-209.601 54.857-33.467-31.359 117.905-241.39 39.305-178.69-50.952 92.484-97.533 39.187-85.876 23.516 11.647-15.681 45.133 26.64 52.409-26.65s78.6-56.927 78.6-56.927c-1.456-25.578 128.261-160.262 151.692-177.087s85.621 0 85.621 0 62.187-16.825 85.61 0c23.452 16.825 153.159 151.509 151.71 177.087 0 0 71.324 3.629 78.59 56.927 7.286 53.29 40.754 10.969 52.427 26.65 11.629 15.681-34.96 68.968-85.904-23.516zM313.407 265.012c0 0-80.332 63.414-68.401 111.297 11.913 47.872 68.401-42.321 68.401-42.321s-52.391 9.402 0-68.979zM715.276 265.012c52.409 78.381 0 68.968 0 68.968s56.486 90.193 68.409 42.321c11.931-47.872-68.409-111.289-68.409-111.289zM427.562 418.482c0 0-191.786 33.449-205.477 66.942 0 0-125.006-12.178-143.839 25.861-18.841 38.032-32.532 94.325-59.932 103.454 0 0 75.347-18.263 111.307-42.594 0 0-49.651 63.901-47.937 86.719s70.205 85.198-6.856 144.527c0 0 105.222-23.516 131.862-176.481 26.604-152.965 220.872-208.428 220.872-208.428zM460.581 395.654c0 0-78.234 86.719-123.879 108.016s-83.126 65.432-71.718 107.266-48.898 130.075-48.898 130.075 71.718-27.382 94.546-63.901c0 0-22.828 146.055-94.546 203.863 0 0 88.013-21.297 104.322-45.645 0 0 30.965 138.449 167.875 188.659 0 0-99.43-129.313-86.381-200.82 13.042-71.507 127.132-143.014 133.64-173.437 6.534-30.423-66.824-111.078-79.865-109.557-13.042 1.539-68.455 59.355-60.29 101.951 0 0-9.786-86.729 22.8-127.802 32.625-41.073 42.393-118.665 42.393-118.665zM519.799 418.967c0 0-1.668 33.661 25.586 35.264 27.246 1.595 57.687 38.462 43.282 68.914-14.444 30.444-24.642 91.348 3.683 126.591 0 0-91.036-67.311-59.383-137.808 0 0-86.94-27.253-70.919-60.904 16.029-33.65 57.762-41.669 57.762-41.669zM728.802 663.409c0 0-83.677-80.634-79.113-126.271 0 0-55.342-91.806-57.349-106.753 0 0 86.252 108.281 242.957 150.878 0 0-38.032 19.776-66.942 19.776 0 0 65.422 68.466 76.072 129.313s117.145 73.038 117.145 73.038-82.157 30.416-171.917-51.741c0 0 21.297 174.968-133.877 226.691 0 0 112.58-143.014-19.776-235.81 0 0 20.565-72.497-18.256-131.604 0 0-1.521-34.228 111.060 52.483zM702.943 471.715c0 0 59.337 50.21 130.836 86.719s-19.776 52.491-19.776 52.491 34.988 17.495 57.816 61.62c0 0 56.295-45.638 22.818-118.665 0 0 48.689 12.178 111.060 57.056 0-0.010-44.115-165.082-302.753-139.22z" />
<glyph unicode="&#xe921;" glyph-name="job-acn" d="M847.6 575.543c0 167.934-127.281 306.112-290.649 323.357-4.306 7.642-8.765 14.177-13.322 19.512 16.399 9.986 27.356 28.043 27.356 48.651 0 31.424-25.475 56.909-56.927 56.909-31.406 0-56.899-25.475-56.899-56.909 0-20.876 11.263-39.128 28.018-49.017-4.752-5.761-9.319-12.886-13.671-21.295-41.473-6.518-80.323-20.883-115.020-41.508-80.805 50.025-144.295 68.847-169.156 43.996-25.307-25.29-5.387-90.596 46.627-173.517-23.444-44.914-36.693-96-36.693-150.171 0-160.115 115.707-293.192 268.073-320.182 5.244-14.009 10.817-26.225 16.665-36.4v-53.662l-109.626-66.432h103.687v-21.598h-142.564l-45.895-77.231h461.73l-53.466 69.67h-71.282v48.606l-68.044 35.642v51.773c8.748 12.118 16.863 28.981 24.103 49.847 34.607 6.25 67.297 17.987 97.159 34.258 73.003-42.579 129.679-57.353 152.829-34.188 22.739 22.712 8.998 77.695-31.71 148.699 30.845 49.712 48.678 108.359 48.678 171.19zM498.588 792.662c30.531-0.384 57.81-44.478 73.69-110.438-35.642 34.464-71.202 65.94-105.578 93.771 9.763 10.862 20.527 16.79 31.888 16.665zM449.947 839.139c-3.621-12.956-6.954-27.035-9.979-42.070-11.707 8.988-23.238 17.513-34.536 25.556 14.205 6.731 29.079 12.289 44.513 16.515zM558.76 381.882c-14.436 8.008-29.4 17.397-44.638 28.089 14.027-12.153 27.973-23.755 41.696-34.76-14.089-30.451-32.011-48.483-51.728-48.222-33.902 0.411-63.829 54.705-78.523 133.024 4.69-55.357 12.529-105.613 22.676-147.62-114.905 32.332-199.153 137.902-199.153 263.15 0 35.241 6.671 68.92 18.814 99.852 21.4-29.721 46.1-60.922 73.62-92.755-32.538 46.466-53.208 90.32-58.745 124.455 13.874 25.227 31.63 48.026 52.44 67.591 25.859-1.016 59.076-12.733 95.554-33.252-3.308-25.039-5.886-51.808-7.589-79.922 4.592 27.946 11.235 52.726 19.411 73.048 22.523-13.573 46.083-30.308 69.81-49.784-55.891-5.056-99.692-52.021-99.692-109.234 0-60.581 49.115-109.706 109.706-109.706 22.408 0 43.256 6.741 60.636 18.28-4.512-40.197-13.011-75.393-24.299-102.232zM596.175 312.295c1.944 8.908 3.754 18.19 5.447 27.813 8.336-6.082 16.55-11.905 24.648-17.46-9.763-4.023-19.795-7.481-30.095-10.353zM693.194 362.694c-17.129-17.111-48.919-16.783-88.261-2.355 7.17 47.359 11.574 101.778 12.412 160.22 7.24 12.449 12.073 26.448 13.929 41.383 65.923-86.53 93.424-167.756 61.92-199.251zM767.525 454.441c-38.815 57.391-91.238 121.566-153.454 185.956-5.608 79.967-17.746 150.422-34.010 202.38 123.286-26.466 215.692-136.046 215.692-267.232 0-43.487-10.175-84.597-28.231-121.102z" />
<glyph unicode="&#xe922;" glyph-name="job-rog" d="M933.655 561.881c-7.918 4.116-19.009 0.022-30.191-9.68-9.329-8.119-18.735-20.134-26.353-34.743-5.815-11.175-9.793-22.313-11.97-32.457-4.027-19.024-1.59-34.401 7.841-39.348 14.481-7.556 39.798 12.344 56.545 44.437 16.722 32.095 18.587 64.249 4.127 71.791zM134.92 561.881c-7.918 4.116-19.009 0.022-30.191-9.68-9.329-8.119-18.735-20.134-26.353-34.743-5.815-11.175-9.793-22.313-11.97-32.457-4.027-19.024-1.59-34.401 7.841-39.348 14.481-7.556 39.798 12.344 56.545 44.437 16.732 32.095 18.587 64.249 4.127 71.791zM623.367 723.673c-48.613 6.518-188.607 31.556-288.46 112.074-122.017 98.394-340.375 86.199-342.554 86.086l-0.074 0.022 0.022-0.022h-0.022l0.049-0.022c1.414-1.757 144.618-177.638 295.863-202.936 111.849-18.723 215.797-94.061 262.897-132.511 7.968 20.786 18.558 44.261 31.269 68.614 13.607 26.040 27.74 49.542 41.011 68.702zM663.48 668.651c22.6 52.357 31.756 93.266 20.5 99.143-9.329 4.879-30.417-15.548-54.456-50.291-13.244-19.16-27.401-42.647-40.987-68.702-12.706-24.339-23.301-47.825-31.292-68.614-15.997-41.776-21.402-72.676-11.751-77.718 12.995-6.772 48.754 35.457 83.57 97.127l232.991-111.501c2.177 10.145 6.128 21.267 11.97 32.442 7.617 14.609 16.996 26.639 26.353 34.758l-236.909 113.351zM385.172 283.877c48.589-6.529 188.607-31.556 288.46-112.074 122.017-98.404 340.352-86.212 342.554-86.086l0.049-0.022v0.022l-0.022 0.014c-1.414 1.757-144.629 177.627-295.863 202.951-111.849 18.7-215.797 94.039-262.897 132.511-7.992-20.786-18.558-44.275-31.292-68.614-13.571-26.066-27.714-49.552-40.987-68.702zM345.063 338.892c-22.6-52.357-31.756-93.266-20.5-99.143 9.329-4.879 30.417 15.548 54.431 50.291 13.268 19.16 27.427 42.661 41.011 68.687 12.706 24.353 23.301 47.825 31.269 68.63 16.023 41.776 21.424 72.666 11.751 77.718-12.97 6.768-48.726-35.444-83.57-97.117l-232.967 111.511c-2.177-10.155-6.152-21.314-11.97-32.465-7.617-14.595-17.022-26.639-26.353-34.743l236.909-113.369z" />
<glyph unicode="&#xe923;" glyph-name="job-pgl" d="M473.894 884.863c0 0-136.235 177.28-207.759 131.563l-63.309-63.319h-71.524v-81.472l-50.129-50.129v-94.689c0 0-90.569-60.958-30.754-125.445 59.794-64.484 195.858-158.568 323.653 149.793l-50.481 10.829 103.168-7.022-38.25-4.642c0 0-89.079-221.535-202.794-219.971 0 0 38.505-121.882 203.666-118.045l-5.495-119.095 75.135-12.828 155.743-155.735-7.323-36.637 87.934-87.963 106.278 106.286-9.161 67.78 78.772 1.839 122.762 122.754-31.788 31.788-98.299-77.586 90.825 85.064-58.771 58.771-143.986-169.379 137.106 176.267-47.278-0.389-91.526 91.496-128.589-0.37-0.626-121.227-112.236 4.368 105.833 3.184-0.949 121.882 128.448-0.767-39.102 105.036-88.123 11.549-87.622-85.906-1.631-63.442-71.951-3.059 64.636 10.971 2.929 60.761 86.028 86.028c0 0-22.304 99.568-39.878 140.602s-86.569 110.797-86.569 110.797l-192.658-10.944-93.021-107.471 86.732 113.752 191.936 14.374zM425.724 556.853c0 0-113.715 26.301-84.627 100.754 0 0 39.244-79.662 84.627-100.754z" />
<glyph unicode="&#xe924;" glyph-name="job-lnc" d="M868.135 243.942l85.051 85.037-81.918 7.111-112.020-112.038 102.146 112.753-112.503 51.255-43.113-43.126 38.573 46.666c0 0-502.921 404.083-744.259 632.273 0 0 486.874-504.855 580.334-665.354l93.399-126.979 21.166-160.793 85.051 85.051h63.512l92.245-92.258v-63.498h88.064v88.064h-63.512l-92.245 92.258v63.573z" />
<glyph unicode="&#xe925;" glyph-name="job-arc" d="M821.7 230.082l-654.302 654.276 1.341 54.261-168.66 85.306 85.306-168.66 54.231 1.311 654.302-654.276 5.801-81.181 121.029-121.044 9.938 93.235 93.235 9.938-121.014 121.055zM904.474 879.694c-88.466-19.676-56.16 80.058-56.16 80.058-233.138 21.054-414.305-122.193-414.305-122.193-74.457 23.883-152.386 14.759-152.386 14.759l70.211-70.211-106.029-11.934-11.934-106.055-70.237 70.211c0 0-9.109-77.9 14.759-152.356 0 0-143.251-181.182-122.167-414.335 0 0 99.719 32.307 80.058-56.16 0 0-81.249-14.251-89.069-101.915 0 0 15.336 22.584 119.971 35.923 0 0 74.031 69.744 48.313 122.852l632.133 632.163c53.108-25.718 122.852 48.313 122.852 48.313 13.366 104.62 35.923 119.944 35.923 119.944-87.679-7.82-101.93-89.058-101.93-89.058zM305.503 557.378c0 0-30.928 63.208 27.364 125.704 62.496 58.292 125.73 27.364 125.73 27.364 87.743 190.317 347.311 147.052 347.311 147.052 5.933-17.679 13.125-30.845 21.164-40.451l-628.129-628.155c-9.629 8.062-22.783 15.257-40.462 21.19-0.026-0.015-43.261 259.522 147.026 347.296z" />
<glyph unicode="&#xe926;" glyph-name="job-cnj" d="M844.957 804.041c0-21.73-17.616-39.324-39.324-39.324-21.751 0-39.346 17.594-39.346 39.324s17.594 39.333 39.346 39.333c21.708 0.012 39.324-17.594 39.324-39.333zM595.097 864.843c0-21.718-17.594-39.333-39.324-39.333s-39.324 17.616-39.324 39.333c0 21.708 17.594 39.324 39.324 39.324s39.324-17.616 39.324-39.324zM364.011 775.43c0-21.718-17.616-39.324-39.324-39.324-21.751 0-39.346 17.607-39.346 39.324s17.594 39.333 39.346 39.333c21.696 0.012 39.324-17.607 39.324-39.333zM194.152 457.22c0-21.739-17.607-39.333-39.333-39.333s-39.324 17.594-39.324 39.333c0 21.708 17.594 39.312 39.324 39.312s39.333-17.607 39.333-39.312zM800.246 507.223c0-21.73-17.616-39.324-39.324-39.324-21.751 0-39.346 17.594-39.346 39.324 0 21.739 17.594 39.346 39.346 39.346 21.708 0 39.324-17.607 39.324-39.346zM803.823 417.874c0-21.73-17.594-39.324-39.324-39.324s-39.324 17.594-39.324 39.324c0 21.739 17.594 39.333 39.324 39.333s39.324-17.594 39.324-39.333zM726.954 458.321c0-21.708-17.616-39.312-39.324-39.312-21.751 0-39.324 17.594-39.324 39.312 0 21.739 17.573 39.333 39.324 39.333 21.708 0.012 39.324-17.594 39.324-39.333zM583.917 339.162c0 0-50.046 48.279 0 55.424 50.068 7.167-42.914 55.434-37.536 85.836s41.122 53.624 41.122 116.202-101.924 232.46-160.917 228.861c-58.989-3.577-62.569 37.557-130.535 39.333 0 0 34.001 173.427 275.361-89.401 0 0 70.629 85.815-15.643 248.517 0 0 193.749-100.114 42.987-271.762 0 0 24.479-82.235 31.633-112.637 0 0 40.481 60.781 96.537 96.559 0 0-110.824 173.415 59.014 216.35 0 0-85.836-91.202-21.457-194.893 41.134-59.014 198.471 57.213 198.471 57.213s26.78-153.781-202.051-100.136c0 0-42.935-44.69-39.346-92.957 0 0-214.519-121.592-19.647-252.106 0 0-58.882-27.040-26.691-57.443 32.145-30.412 69.604-112.407 169.74-137.453 100.114-25.034 75.080-96.559 75.080-96.559s-87.646 107.281-198.471-58.98c-73.292-73.313-37.514 85.803-55.391 117.982-17.901 32.179-78.657 118.015-168.071 130.526-89.392 12.523-69.758-41.122-148.403 12.523-78.679 53.624-148.394 110.824-148.394 110.824s-37.545-41.113-30.378-98.326c7.133-57.201-62.6-78.657-55.434-110.849 0 0-125.157 107.269 94.77 259.261 0 0-21.466 116.202-150.182 218.117 0 0 178.772 66.147 191.304-255.674 0 0 26.823-76.881 162.705-62.557 0 0-76.89 78.67-103.691 85.79 0 0-50.068 10.744-35.768 218.139 0 0-225.284 169.859-5.366 286.086 0 0-71.525-153.759 16.088-241.384 0 0 116.236 69.767 205.637 75.114 0 0 9.774-85.094-118.003-89.413 0 0-75.123-87.591-8.946-194.872 66.082-107.269 219.863-141.258 219.863-141.258z" />
<glyph unicode="&#xe927;" glyph-name="job-gla" d="M1011.261 45.206l5.674 5.648-3.968 3.942c0.136 1.547 0.242 3.053 0.242 4.626 0 30.451-24.693 55.197-55.197 55.197-1.574 0-3.079-0.136-4.626-0.242l-130.083 130.083 52.197 53.086c17.336 17.605 18.599 44.56 2.784 60.080-15.815 15.6-42.714 13.894-60.080-3.726l-22.715-23.146h-47.492l-14 97.79c-160.817 46.765-522.649 506.334-522.649 506.334l-204.272 89.105 89.105-204.272c0 0 459.611-361.791 506.334-522.608l86.427-12.373v-61.518h0.794l-20.536-20.835c-17.363-17.658-18.573-44.56-2.784-60.133 15.815-15.52 42.714-13.867 60.054 3.779l46.44 47.234 130.109-130.139c-0.079-1.21-0.189-2.474-0.189-3.699 0-30.477 24.693-55.197 55.197-55.197 1.237 0 2.5 0.136 3.699 0.189l4.411-4.384 6.12 6.147c18.989 5.069 33.961 19.988 39.003 39.030zM12.739 45.206l-5.663 5.648 3.968 3.942c-0.136 1.547-0.227 3.053-0.227 4.626 0 30.451 24.693 55.197 55.182 55.197 1.547 0 3.079-0.136 4.615-0.242l130.098 130.083-52.212 53.086c-17.325 17.605-18.573 44.56-2.769 60.080 15.815 15.6 42.714 13.894 60.080-3.726l22.704-23.146h47.492l14 97.79c160.817 46.765 522.676 506.334 522.676 506.334l204.272 89.105-89.105-204.272c0 0-459.626-361.791-506.334-522.608l-86.453-12.373v-61.518h-0.768l20.536-20.835c17.336-17.658 18.573-44.56 2.784-60.133-15.842-15.52-42.714-13.867-60.080 3.779l-46.413 47.234-130.124-130.139c0.095-1.21 0.2-2.474 0.2-3.699 0-30.477-24.693-55.197-55.197-55.197-1.252 0-2.489 0.136-3.684 0.189l-4.411-4.384-6.132 6.147c-19.019 5.069-33.961 19.988-39.030 39.030z" />
<glyph unicode="&#xe928;" glyph-name="job-mrd" d="M321.492 902.312l55.938 33.566 59.168-86.352-67.156-49.552 45.585 25.846c0 0 235.839-358.453 522.035-654.261 0 0-35.157-108.735-67.12-139.124-32.027-30.36-41.593 63.965-65.579 99.148-23.975 35.182-457.304 641.212-457.304 641.212s-94.34-62.388-89.543-231.857c0 0-214.268 105.544-257.449 386.982 0 0 75.309-31.405 177.497-188.701 0 0-57.884 101.523-91.249 134.899 0 0 94.44-18.176 180.792 4.21 0 0-43.171 63.965-36.771 70.351 6.385 6.385 67.145 55.963 75.144 47.964s79.38-64.080 16.012-94.325zM702.522 902.312l-55.938 33.566-59.168-86.352 67.145-49.552-45.585 25.846c0 0-235.828-358.453-522.045-654.261 0 0 35.193-108.735 67.156-139.124 32.002-30.36 41.579 63.965 65.579 99.148 23.975 35.182 457.279 641.212 457.279 641.212s94.351-62.388 89.557-231.857c0 0 214.268 105.544 257.435 386.982 0 0-75.298-31.405-177.497-188.701 0 0 57.909 101.523 91.274 134.899 0 0-94.479-18.176-180.802 4.21 0 0 43.181 63.965 36.771 70.351-6.385 6.385-67.145 55.963-75.119 47.964-8.027-7.999-79.419-64.080-16.040-94.325z" />
<glyph unicode="&#xe929;" glyph-name="exp-5x" d="M220.57 241.152c-26.051 0-52.593 3.441-79.626 10.322s-51.855 17.449-74.465 31.703c-11.796 7.373-18.801 16.343-21.012 26.89-2.212 10.588-0.86 20.398 4.055 29.491s12.165 15.217 21.75 18.432c9.585 3.174 20.521 1.331 32.809-5.55 18.186-10.322 36.618-18.186 55.296-23.593s38.584-8.11 59.72-8.11c30.966 0 55.173 7.987 72.622 23.982 17.449 15.954 26.173 37.458 26.173 64.492 0 27.525-8.356 49.766-25.068 66.724s-39.567 25.436-68.567 25.436c-15.729 0-30.966-2.58-45.711-7.741s-29.245-14.131-43.5-26.911c-4.424-3.912-10.076-7.741-16.957-11.428-6.881-3.707-14.275-5.55-22.118-5.55-25.068 0-37.601 12.042-37.601 36.127v241.152c0 27.525 13.742 41.288 41.288 41.288h242.565c27.525 0 41.288-13.025 41.288-39.076s-13.763-39.076-41.288-39.076h-191.693v-140.82c26.030 19.64 57.999 29.491 95.846 29.491 32.932 0 61.563-7.004 85.893-21.012s43.233-33.423 56.771-58.245c13.517-24.801 20.275-53.699 20.275-86.63 0-33.894-7.619-63.775-22.856-89.58-15.258-25.805-37.007-45.957-65.249-60.436-28.262-14.52-61.809-21.77-100.639-21.77zM529.49 244.838c-16.712 0-30.106 5.161-40.182 15.483s-15.114 23.593-15.114 39.813c0 15.729 5.038 28.611 15.114 38.707 10.076 10.076 23.47 15.114 40.182 15.114 17.203 0 30.597-5.038 40.182-15.114s14.377-22.979 14.377-38.707c0-16.22-4.792-29.491-14.377-39.813s-22.999-15.483-40.182-15.483zM704.205 244.838c-10.813 0-19.804 3.072-26.911 9.216s-10.793 14.111-11.039 23.962c-0.266 9.81 3.809 20.132 12.165 30.986l101.745 125.317-94.372 116.49c-8.847 10.813-13.025 21.135-12.513 30.966 0.471 9.83 4.28 17.818 11.428 23.962 7.127 6.144 16.097 9.216 26.89 9.216 11.325 0 20.767-1.966 28.406-5.898 7.598-3.932 14.623-10.076 20.992-18.432l72.253-92.897 72.991 92.897c6.861 8.356 14.008 14.5 21.381 18.432 7.352 3.932 16.466 5.898 27.279 5.898 11.305 0 20.398-3.195 27.279-9.585s10.445-14.5 10.67-24.33-4.035-20.152-12.902-30.966l-94.372-115.753 102.482-125.317c8.868-10.322 13.046-20.398 12.554-30.249-0.512-9.83-4.321-17.961-11.448-24.33-7.127-6.41-16.364-9.605-27.648-9.605-19.681 0-35.881 8.11-48.681 24.33l-80.364 101.028-79.626-101.028c-6.39-7.844-13.251-13.885-20.644-18.043-7.352-4.157-16.691-6.267-27.996-6.267z" />
<glyph unicode="&#xe92a;" glyph-name="exp-6x" d="M235.315 241.152c-64.389 0-114.156 22.61-149.299 67.85-35.144 45.199-52.716 108.605-52.716 190.218 0 87.962 19.784 156.058 59.351 204.227s94.249 72.253 164.045 72.253c21.627 0 43.622-3.318 65.987-9.953s43.377-16.589 63.037-29.86c9.81-6.39 15.483-14.623 16.957-24.699s0-19.661-4.424-28.754c-4.424-9.093-11.182-15.237-20.275-18.432-9.093-3.215-19.538-1.352-31.334 5.53-16.712 9.81-32.44 16.691-47.186 20.644-14.746 3.932-29.491 5.898-44.237 5.898-42.762 0-75.469-14.991-98.058-44.974-22.61-29.983-33.915-74.711-33.915-134.185v-21.381c10.322 27.013 27.013 48.169 50.135 63.406 23.101 15.237 49.644 22.856 79.626 22.856 29.962 0 56.525-7.127 79.626-21.381s41.288-33.915 54.559-58.982 19.907-53.821 19.907-86.262c0-33.444-7.25-63.304-21.75-89.58-14.5-26.296-34.652-46.94-60.457-61.932-25.805-15.012-55.665-22.508-89.58-22.508zM230.154 316.355c26.542 0 48.046 8.724 64.512 26.153s24.699 40.448 24.699 68.956c0 28.488-8.233 51.61-24.699 69.284-16.466 17.715-37.97 26.563-64.512 26.563s-48.046-8.847-64.512-26.563c-16.466-17.674-24.699-40.796-24.699-69.284 0-28.529 8.233-51.528 24.699-68.956s37.97-26.153 64.512-26.153zM529.49 244.838c-16.712 0-30.106 5.161-40.182 15.483s-15.114 23.593-15.114 39.813c0 15.729 5.038 28.611 15.114 38.707 10.076 10.076 23.47 15.114 40.182 15.114 17.203 0 30.597-5.038 40.182-15.114s14.377-22.979 14.377-38.707c0-16.22-4.792-29.491-14.377-39.813s-22.999-15.483-40.182-15.483zM704.205 244.838c-10.813 0-19.804 3.072-26.911 9.216s-10.793 14.111-11.039 23.962c-0.266 9.81 3.809 20.132 12.165 30.986l101.745 125.317-94.372 116.49c-8.847 10.813-13.025 21.135-12.513 30.966 0.471 9.83 4.28 17.818 11.428 23.962 7.127 6.144 16.097 9.216 26.89 9.216 11.325 0 20.767-1.966 28.406-5.898 7.598-3.932 14.623-10.076 20.992-18.432l72.253-92.897 72.991 92.897c6.861 8.356 14.008 14.5 21.381 18.432 7.352 3.932 16.466 5.898 27.279 5.898 11.305 0 20.398-3.195 27.279-9.585s10.445-14.5 10.67-24.33-4.035-20.152-12.902-30.966l-94.372-115.753 102.482-125.317c8.868-10.322 13.046-20.398 12.554-30.249-0.512-9.83-4.321-17.961-11.448-24.33-7.127-6.41-16.364-9.605-27.648-9.605-19.681 0-35.881 8.11-48.681 24.33l-80.364 101.028-79.626-101.028c-6.39-7.844-13.251-13.885-20.644-18.043-7.352-4.157-16.691-6.267-27.996-6.267z" />
<glyph unicode="&#xe92b;" glyph-name="exp-3x" d="M205.824 241.152c-26.542 0-54.067 3.441-82.575 10.322-28.529 6.881-53.33 17.203-74.465 30.966-12.288 8.356-19.661 17.797-22.118 28.406-2.458 10.568-1.229 20.132 3.686 28.733s12.411 14.377 22.487 17.347c10.056 2.949 21.484 0.963 34.284-5.919 20.152-10.793 39.567-18.555 58.245-23.204 18.678-4.69 37.847-7.025 57.508-7.025 66.355 0 99.533 26.051 99.533 78.152 0 24.576-8.233 42.865-24.699 54.927-16.486 12.042-40.448 18.063-71.885 18.063h-47.186c-13.763 0-24.228 3.441-31.334 10.322-7.127 6.881-10.691 16.466-10.691 28.754s3.564 21.873 10.691 28.754c7.127 6.861 17.572 10.322 31.334 10.322h38.339c27.525 0 49.398 6.758 65.618 20.275s24.33 32.317 24.33 56.402c0 22.61-7.496 39.813-22.487 51.61s-36.741 17.695-65.249 17.695c-18.186 0-35.287-2.109-51.241-6.267-15.974-4.178-33.546-11.919-52.716-23.224-11.305-6.881-21.627-8.724-30.966-5.53s-16.589 9.093-21.75 17.695c-5.161 8.602-6.758 18.063-4.792 28.385s8.847 19.169 20.644 26.542c43.233 28.017 92.897 42.025 148.931 42.025 54.067 0 96.072-12.165 126.075-36.495 29.983-24.33 44.974-58.122 44.974-101.376 0-28.017-7.148-52.593-21.381-73.728-14.254-21.135-33.669-36.372-58.245-45.711 29.962-8.356 53.33-23.716 70.042-46.080 16.691-22.364 25.068-49.521 25.068-81.449 0-46.223-16.712-82.719-50.135-109.507-33.444-26.788-79.38-40.182-137.871-40.182zM529.49 244.838c-16.712 0-30.106 5.161-40.182 15.483s-15.114 23.593-15.114 39.813c0 15.729 5.038 28.611 15.114 38.707 10.076 10.076 23.47 15.114 40.182 15.114 17.203 0 30.597-5.038 40.182-15.114s14.377-22.979 14.377-38.707c0-16.22-4.792-29.491-14.377-39.813s-22.999-15.483-40.182-15.483zM704.205 244.838c-10.813 0-19.804 3.072-26.911 9.216s-10.793 14.111-11.039 23.962c-0.266 9.81 3.809 20.132 12.165 30.986l101.745 125.317-94.372 116.49c-8.847 10.813-13.025 21.135-12.513 30.966 0.471 9.83 4.28 17.818 11.428 23.962 7.127 6.144 16.097 9.216 26.89 9.216 11.325 0 20.767-1.966 28.406-5.898 7.598-3.932 14.623-10.076 20.992-18.432l72.253-92.897 72.991 92.897c6.861 8.356 14.008 14.5 21.381 18.432 7.352 3.932 16.466 5.898 27.279 5.898 11.305 0 20.398-3.195 27.279-9.585s10.445-14.5 10.67-24.33-4.035-20.152-12.902-30.966l-94.372-115.753 102.482-125.317c8.868-10.322 13.046-20.398 12.554-30.249-0.512-9.83-4.321-17.961-11.448-24.33-7.127-6.41-16.364-9.605-27.648-9.605-19.681 0-35.881 8.11-48.681 24.33l-80.364 101.028-79.626-101.028c-6.39-7.844-13.251-13.885-20.644-18.043-7.352-4.157-16.691-6.267-27.996-6.267z" />
<glyph unicode="&#xe92c;" glyph-name="exp-4x" d="M299.459 242.647c-14.746 0-26.296 4.035-34.652 12.165s-12.534 19.784-12.534 35.021v57.508h-182.108c-15.237 0-27.402 3.195-36.495 9.605-9.093 6.369-13.64 16.2-13.64 29.471 0 8.356 2.089 17.203 6.267 26.542s11.674 21.627 22.487 36.864l202.015 292.7c6.861 10.322 14.5 18.186 22.856 23.593s17.94 8.11 28.754 8.11c12.78 0 23.347-3.809 31.703-11.428s12.534-19.538 12.534-35.758v-301.548h36.127c28.508 0 42.762-13.046 42.762-39.076 0-26.051-14.254-39.076-42.762-39.076h-36.127v-57.508c0-15.237-4.178-26.89-12.534-35.021s-19.907-12.165-34.652-12.165zM252.273 425.472v198.328l-135.66-198.328h135.66zM529.49 244.838c-16.712 0-30.106 5.161-40.182 15.483s-15.114 23.593-15.114 39.813c0 15.729 5.038 28.611 15.114 38.707 10.076 10.076 23.47 15.114 40.182 15.114 17.203 0 30.597-5.038 40.182-15.114s14.377-22.979 14.377-38.707c0-16.22-4.792-29.491-14.377-39.813s-22.999-15.483-40.182-15.483zM704.205 244.838c-10.813 0-19.804 3.072-26.911 9.216s-10.793 14.111-11.039 23.962c-0.266 9.81 3.809 20.132 12.165 30.986l101.745 125.317-94.372 116.49c-8.847 10.813-13.025 21.135-12.513 30.966 0.471 9.83 4.28 17.818 11.428 23.962 7.127 6.144 16.097 9.216 26.89 9.216 11.325 0 20.767-1.966 28.406-5.898 7.598-3.932 14.623-10.076 20.992-18.432l72.253-92.897 72.991 92.897c6.861 8.356 14.008 14.5 21.381 18.432 7.352 3.932 16.466 5.898 27.279 5.898 11.305 0 20.398-3.195 27.279-9.585s10.445-14.5 10.67-24.33-4.035-20.152-12.902-30.966l-94.372-115.753 102.482-125.317c8.868-10.322 13.046-20.398 12.554-30.249-0.512-9.83-4.321-17.961-11.448-24.33-7.127-6.41-16.364-9.605-27.648-9.605-19.681 0-35.881 8.11-48.681 24.33l-80.364 101.028-79.626-101.028c-6.39-7.844-13.251-13.885-20.644-18.043-7.352-4.157-16.691-6.267-27.996-6.267z" />
<glyph unicode="&#xe92d;" glyph-name="exp-2x" d="M93.020 248.525c-15.749 0-27.177 3.564-34.284 10.691-7.127 7.127-10.691 17.572-10.691 31.334 0 8.356 2.212 16.466 6.636 24.33s10.813 16.241 19.169 25.088l148.193 157.778c22.61 23.593 38.83 45.097 48.66 64.512s14.746 38.953 14.746 58.614c0 50.135-30.228 75.203-90.685 75.203-16.712 0-33.423-2.335-50.135-7.004s-33.69-12.657-50.872-23.962c-10.813-7.373-20.91-9.585-30.228-6.636-9.359 2.949-16.486 8.97-21.381 18.063-4.915 9.093-6.513 18.801-4.792 29.123s7.987 19.169 18.801 26.542c21.135 14.254 44.851 25.068 71.148 32.44s52.716 11.059 79.258 11.059c55.542 0 98.161-12.534 127.918-37.601 29.737-25.068 44.605-60.948 44.605-107.643 0-31.457-7.496-61.686-22.487-90.685-14.991-29.020-38.461-60.211-70.41-93.635l-114.278-119.439h192.43c27.013 0 40.55-12.8 40.55-38.339 0-26.542-13.537-39.813-40.55-39.813h-271.319zM529.49 244.838c-16.712 0-30.106 5.161-40.182 15.483s-15.114 23.593-15.114 39.813c0 15.729 5.038 28.611 15.114 38.707 10.076 10.076 23.47 15.114 40.182 15.114 17.203 0 30.597-5.038 40.182-15.114s14.377-22.979 14.377-38.707c0-16.22-4.792-29.491-14.377-39.813s-22.999-15.483-40.182-15.483zM704.205 244.838c-10.813 0-19.804 3.072-26.911 9.216s-10.793 14.111-11.039 23.962c-0.266 9.81 3.809 20.132 12.165 30.986l101.745 125.317-94.372 116.49c-8.847 10.813-13.025 21.135-12.513 30.966 0.471 9.83 4.28 17.818 11.428 23.962 7.127 6.144 16.097 9.216 26.89 9.216 11.325 0 20.767-1.966 28.406-5.898 7.598-3.932 14.623-10.076 20.992-18.432l72.253-92.897 72.991 92.897c6.861 8.356 14.008 14.5 21.381 18.432 7.352 3.932 16.466 5.898 27.279 5.898 11.305 0 20.398-3.195 27.279-9.585s10.445-14.5 10.67-24.33-4.035-20.152-12.902-30.966l-94.372-115.753 102.482-125.317c8.868-10.322 13.046-20.398 12.554-30.249-0.512-9.83-4.321-17.961-11.448-24.33-7.127-6.41-16.364-9.605-27.648-9.605-19.681 0-35.881 8.11-48.681 24.33l-80.364 101.028-79.626-101.028c-6.39-7.844-13.251-13.885-20.644-18.043-7.352-4.157-16.691-6.267-27.996-6.267z" />
<glyph unicode="&#xe92e;" glyph-name="exp-8x" d="M216.146 241.152c-60.457 0-107.766 13.005-141.926 39.076-34.161 26.030-51.241 62.157-51.241 108.36 0 31.457 8.212 58.266 24.699 80.384 16.466 22.118 37.97 37.601 64.512 46.449-23.593 10.322-42.148 26.030-55.665 47.186-13.517 21.135-20.275 45.466-20.275 72.991 0 43.745 16.22 78.029 48.66 102.851s76.186 37.233 131.236 37.233c55.542 0 99.533-12.411 131.973-37.233s48.66-59.105 48.66-102.851c0-27.525-6.758-51.978-20.275-73.359s-31.826-36.987-54.927-46.817c26.542-8.847 47.78-24.474 63.775-46.838 15.974-22.364 23.962-49.029 23.962-79.995 0-46.203-17.080-82.33-51.241-108.36-34.181-26.071-81.469-39.076-141.926-39.076zM216.146 314.88c70.287 0 105.431 26.808 105.431 80.364 0 53.084-35.144 79.647-105.431 79.647-34.406 0-60.58-6.636-78.52-19.927-17.94-13.251-26.911-33.157-26.911-59.72 0-26.522 8.97-46.551 26.911-60.088s44.114-20.275 78.52-20.275zM216.146 548.598c29 0 51.732 6.881 68.198 20.644 16.466 13.742 24.699 32.686 24.699 56.771 0 23.593-8.233 42.148-24.699 55.665s-39.199 20.275-68.198 20.275-51.61-6.779-67.83-20.275c-16.22-13.517-24.33-32.072-24.33-55.665 0-24.084 8.11-43.028 24.33-56.771 16.22-13.763 38.83-20.644 67.83-20.644zM529.49 244.838c-16.712 0-30.106 5.161-40.182 15.483s-15.114 23.593-15.114 39.813c0 15.729 5.038 28.611 15.114 38.707 10.076 10.076 23.47 15.114 40.182 15.114 17.203 0 30.597-5.038 40.182-15.114s14.377-22.979 14.377-38.707c0-16.22-4.792-29.491-14.377-39.813s-22.999-15.483-40.182-15.483zM704.205 244.838c-10.813 0-19.804 3.072-26.911 9.216s-10.793 14.111-11.039 23.962c-0.266 9.81 3.809 20.132 12.165 30.986l101.745 125.317-94.372 116.49c-8.847 10.813-13.025 21.135-12.513 30.966 0.471 9.83 4.28 17.818 11.428 23.962 7.127 6.144 16.097 9.216 26.89 9.216 11.325 0 20.767-1.966 28.406-5.898 7.598-3.932 14.623-10.076 20.992-18.432l72.253-92.897 72.991 92.897c6.861 8.356 14.008 14.5 21.381 18.432 7.352 3.932 16.466 5.898 27.279 5.898 11.305 0 20.398-3.195 27.279-9.585s10.445-14.5 10.67-24.33-4.035-20.152-12.902-30.966l-94.372-115.753 102.482-125.317c8.868-10.322 13.046-20.398 12.554-30.249-0.512-9.83-4.321-17.961-11.448-24.33-7.127-6.41-16.364-9.605-27.648-9.605-19.681 0-35.881 8.11-48.681 24.33l-80.364 101.028-79.626-101.028c-6.39-7.844-13.251-13.885-20.644-18.043-7.352-4.157-16.691-6.267-27.996-6.267z" />
<glyph unicode="&#xe92f;" glyph-name="exp-9x" d="M175.596 241.152c-21.135 0-43.008 3.318-65.618 9.953s-43.766 16.589-63.406 29.839c-9.339 6.41-14.868 14.643-16.589 24.719-1.72 10.056-0.369 19.64 4.055 28.733s11.162 15.217 20.275 18.432c9.093 3.174 19.538 1.331 31.334-5.55 16.691-9.83 32.44-16.712 47.186-20.644s29.491-5.898 44.237-5.898c42.762 0 75.448 14.971 98.058 44.974 22.61 29.962 33.915 74.691 33.915 134.185v21.381c-10.322-27.034-27.034-48.169-50.135-63.406s-49.644-22.856-79.626-22.856c-29.491 0-55.91 7.127-79.258 21.381-23.347 14.234-41.656 34.038-54.927 59.351s-19.907 53.944-19.907 85.893c0 33.915 7.25 63.898 21.75 89.948 14.5 26.092 34.775 46.612 60.826 61.604s55.788 22.487 89.211 22.487c64.389 0 114.156-22.487 149.299-67.461s52.716-108.503 52.716-190.587c0-88.003-19.661-156.058-58.982-204.247-39.322-48.148-94.126-72.233-164.413-72.233zM202.875 510.259c26.542 0 48.046 8.847 64.512 26.542s24.699 40.796 24.699 69.304c0 28.508-8.233 51.487-24.699 68.936s-37.97 26.173-64.512 26.173c-26.542 0-48.046-8.724-64.512-26.173-16.466-17.469-24.699-40.448-24.699-68.936 0-28.508 8.233-51.61 24.699-69.304s37.97-26.542 64.512-26.542zM529.49 244.838c-16.712 0-30.106 5.161-40.182 15.483s-15.114 23.593-15.114 39.813c0 15.729 5.038 28.611 15.114 38.707 10.076 10.076 23.47 15.114 40.182 15.114 17.203 0 30.597-5.038 40.182-15.114s14.377-22.979 14.377-38.707c0-16.22-4.792-29.491-14.377-39.813s-22.999-15.483-40.182-15.483zM704.205 244.838c-10.813 0-19.804 3.072-26.911 9.216s-10.793 14.111-11.039 23.962c-0.266 9.81 3.809 20.132 12.165 30.986l101.745 125.317-94.372 116.49c-8.847 10.813-13.025 21.135-12.513 30.966 0.471 9.83 4.28 17.818 11.428 23.962 7.127 6.144 16.097 9.216 26.89 9.216 11.325 0 20.767-1.966 28.406-5.898 7.598-3.932 14.623-10.076 20.992-18.432l72.253-92.897 72.991 92.897c6.861 8.356 14.008 14.5 21.381 18.432 7.352 3.932 16.466 5.898 27.279 5.898 11.305 0 20.398-3.195 27.279-9.585s10.445-14.5 10.67-24.33-4.035-20.152-12.902-30.966l-94.372-115.753 102.482-125.317c8.868-10.322 13.046-20.398 12.554-30.249-0.512-9.83-4.321-17.961-11.448-24.33-7.127-6.41-16.364-9.605-27.648-9.605-19.681 0-35.881 8.11-48.681 24.33l-80.364 101.028-79.626-101.028c-6.39-7.844-13.251-13.885-20.644-18.043-7.352-4.157-16.691-6.267-27.996-6.267z" />
<glyph unicode="&#xe930;" glyph-name="exp-7x" d="M121.774 242.647c-17.203 0-29.491 5.878-36.864 17.674s-6.636 26.030 2.212 42.762l205.701 386.335h-221.921c-27.525 0-41.288 13.025-41.288 39.076 0 26.542 13.763 39.813 41.288 39.813h285.327c13.271 0 24.064-3.441 32.44-10.322 8.356-6.881 12.534-16.712 12.534-29.491 0-10.813-1.475-20.275-4.424-28.385s-6.881-16.835-11.796-26.173l-209.388-400.343c-10.813-20.623-28.754-30.945-53.821-30.945zM529.49 244.838c-16.712 0-30.106 5.161-40.182 15.483s-15.114 23.593-15.114 39.813c0 15.729 5.038 28.611 15.114 38.707 10.076 10.076 23.47 15.114 40.182 15.114 17.203 0 30.597-5.038 40.182-15.114s14.377-22.979 14.377-38.707c0-16.22-4.792-29.491-14.377-39.813s-22.999-15.483-40.182-15.483zM704.205 244.838c-10.813 0-19.804 3.072-26.911 9.216s-10.793 14.111-11.039 23.962c-0.266 9.81 3.809 20.132 12.165 30.986l101.745 125.317-94.372 116.49c-8.847 10.813-13.025 21.135-12.513 30.966 0.471 9.83 4.28 17.818 11.428 23.962 7.127 6.144 16.097 9.216 26.89 9.216 11.325 0 20.767-1.966 28.406-5.898 7.598-3.932 14.623-10.076 20.992-18.432l72.253-92.897 72.991 92.897c6.861 8.356 14.008 14.5 21.381 18.432 7.352 3.932 16.466 5.898 27.279 5.898 11.305 0 20.398-3.195 27.279-9.585s10.445-14.5 10.67-24.33-4.035-20.152-12.902-30.966l-94.372-115.753 102.482-125.317c8.868-10.322 13.046-20.398 12.554-30.249-0.512-9.83-4.321-17.961-11.448-24.33-7.127-6.41-16.364-9.605-27.648-9.605-19.681 0-35.881 8.11-48.681 24.33l-80.364 101.028-79.626-101.028c-6.39-7.844-13.251-13.885-20.644-18.043-7.352-4.157-16.691-6.267-27.996-6.267z" />
</font>
</defs>
</svg>
